<svg width="185" height="130" viewBox="0 0 185 130" fill="none" xmlns="http://www.w3.org/2000/svg">
<path d="M52.6 83V69H54.28V83H52.6ZM57.5428 83V73.22H59.0828V74.88H59.3628C59.5761 74.4133 59.9361 73.9933 60.4428 73.62C60.9628 73.2333 61.7228 73.04 62.7228 73.04C63.4561 73.04 64.1095 73.1933 64.6828 73.5C65.2695 73.8067 65.7361 74.26 66.0828 74.86C66.4295 75.46 66.6028 76.2 66.6028 77.08V83H65.0228V77.2C65.0228 76.2267 64.7761 75.52 64.2828 75.08C63.8028 74.64 63.1495 74.42 62.3228 74.42C61.3761 74.42 60.6028 74.7267 60.0028 75.34C59.4161 75.9533 59.1228 76.8667 59.1228 78.08V83H57.5428ZM69.8084 83V73.22H71.3484V74.88H71.6284C71.8418 74.4133 72.2018 73.9933 72.7084 73.62C73.2284 73.2333 73.9884 73.04 74.9884 73.04C75.7218 73.04 76.3751 73.1933 76.9484 73.5C77.5351 73.8067 78.0018 74.26 78.3484 74.86C78.6951 75.46 78.8684 76.2 78.8684 77.08V83H77.2884V77.2C77.2884 76.2267 77.0418 75.52 76.5484 75.08C76.0684 74.64 75.4151 74.42 74.5884 74.42C73.6418 74.42 72.8684 74.7267 72.2684 75.34C71.6818 75.9533 71.3884 76.8667 71.3884 78.08V83H69.8084ZM86.5941 83.28C85.6074 83.28 84.7341 83.0733 83.9741 82.66C83.2274 82.2467 82.6407 81.6667 82.2141 80.92C81.8007 80.16 81.5941 79.2667 81.5941 78.24V77.98C81.5941 76.9667 81.8007 76.08 82.2141 75.32C82.6407 74.56 83.2274 73.9733 83.9741 73.56C84.7341 73.1467 85.6074 72.94 86.5941 72.94C87.5807 72.94 88.4474 73.1467 89.1941 73.56C89.9541 73.9733 90.5407 74.56 90.9541 75.32C91.3807 76.08 91.5941 76.9667 91.5941 77.98V78.24C91.5941 79.2667 91.3807 80.16 90.9541 80.92C90.5407 81.6667 89.9541 82.2467 89.1941 82.66C88.4474 83.0733 87.5807 83.28 86.5941 83.28ZM86.5941 81.86C87.6341 81.86 88.4607 81.5333 89.0741 80.88C89.7007 80.2133 90.0141 79.32 90.0141 78.2V78.02C90.0141 76.9 89.7007 76.0133 89.0741 75.36C88.4607 74.6933 87.6341 74.36 86.5941 74.36C85.5674 74.36 84.7407 74.6933 84.1141 75.36C83.4874 76.0133 83.1741 76.9 83.1741 78.02V78.2C83.1741 79.32 83.4874 80.2133 84.1141 80.88C84.7407 81.5333 85.5674 81.86 86.5941 81.86ZM94.3773 83V69H96.0573V81.48H103.137V83H94.3773ZM108.355 83.28C107.675 83.28 107.055 83.16 106.495 82.92C105.935 82.68 105.495 82.3333 105.175 81.88C104.855 81.4267 104.695 80.8733 104.695 80.22C104.695 79.5533 104.855 79.0067 105.175 78.58C105.495 78.14 105.935 77.8133 106.495 77.6C107.055 77.3733 107.682 77.26 108.375 77.26H111.675V76.54C111.675 75.8467 111.469 75.3 111.055 74.9C110.655 74.5 110.055 74.3 109.255 74.3C108.469 74.3 107.855 74.4933 107.415 74.88C106.975 75.2533 106.675 75.76 106.515 76.4L105.035 75.92C105.195 75.3733 105.449 74.88 105.795 74.44C106.142 73.9867 106.602 73.6267 107.175 73.36C107.762 73.08 108.462 72.94 109.275 72.94C110.529 72.94 111.502 73.2667 112.195 73.92C112.889 74.56 113.235 75.4667 113.235 76.64V81.06C113.235 81.46 113.422 81.66 113.795 81.66H114.695V83H113.315C112.875 83 112.522 82.88 112.255 82.64C111.989 82.3867 111.855 82.0533 111.855 81.64V81.54H111.615C111.469 81.7933 111.269 82.06 111.015 82.34C110.775 82.6067 110.442 82.8267 110.015 83C109.589 83.1867 109.035 83.28 108.355 83.28ZM108.535 81.92C109.469 81.92 110.222 81.6467 110.795 81.1C111.382 80.54 111.675 79.76 111.675 78.76V78.54H108.435C107.809 78.54 107.289 78.68 106.875 78.96C106.475 79.2267 106.275 79.6333 106.275 80.18C106.275 80.7267 106.482 81.1533 106.895 81.46C107.322 81.7667 107.869 81.92 108.535 81.92ZM120.345 83.18C119.639 83.18 118.985 83.0267 118.385 82.72C117.799 82.4133 117.332 81.96 116.985 81.36C116.652 80.7467 116.485 80.0067 116.485 79.14V73.22H118.065V79.02C118.065 79.9933 118.305 80.7 118.785 81.14C119.279 81.58 119.939 81.8 120.765 81.8C121.699 81.8 122.465 81.4933 123.065 80.88C123.665 80.2667 123.965 79.3533 123.965 78.14V73.22H125.545V83H124.005V81.34H123.725C123.512 81.8067 123.145 82.2333 122.625 82.62C122.105 82.9933 121.345 83.18 120.345 83.18ZM128.851 83V73.22H130.391V74.88H130.671C130.885 74.4133 131.245 73.9933 131.751 73.62C132.271 73.2333 133.031 73.04 134.031 73.04C134.765 73.04 135.418 73.1933 135.991 73.5C136.578 73.8067 137.045 74.26 137.391 74.86C137.738 75.46 137.911 76.2 137.911 77.08V83H136.331V77.2C136.331 76.2267 136.085 75.52 135.591 75.08C135.111 74.64 134.458 74.42 133.631 74.42C132.685 74.42 131.911 74.7267 131.311 75.34C130.725 75.9533 130.431 76.8667 130.431 78.08V83H128.851ZM145.617 83.28C144.67 83.28 143.817 83.08 143.057 82.68C142.31 82.2667 141.717 81.68 141.277 80.92C140.85 80.16 140.637 79.26 140.637 78.22V78C140.637 76.9467 140.85 76.0467 141.277 75.3C141.717 74.54 142.31 73.96 143.057 73.56C143.817 73.1467 144.67 72.94 145.617 72.94C146.55 72.94 147.344 73.1133 147.997 73.46C148.664 73.8067 149.184 74.2667 149.557 74.84C149.944 75.4133 150.19 76.0267 150.297 76.68L148.757 77C148.69 76.52 148.53 76.08 148.277 75.68C148.037 75.28 147.697 74.96 147.257 74.72C146.817 74.48 146.277 74.36 145.637 74.36C144.984 74.36 144.397 74.5067 143.877 74.8C143.37 75.0933 142.964 75.5133 142.657 76.06C142.364 76.6067 142.217 77.26 142.217 78.02V78.2C142.217 78.96 142.364 79.6133 142.657 80.16C142.964 80.7067 143.37 81.1267 143.877 81.42C144.397 81.7133 144.984 81.86 145.637 81.86C146.61 81.86 147.35 81.6067 147.857 81.1C148.377 80.5933 148.697 79.9667 148.817 79.22L150.377 79.56C150.23 80.2 149.964 80.8067 149.577 81.38C149.19 81.9533 148.664 82.4133 147.997 82.76C147.344 83.1067 146.55 83.28 145.617 83.28ZM153.07 83V69H154.65V74.78H154.93C155.063 74.4867 155.263 74.2133 155.53 73.96C155.81 73.6933 156.163 73.4733 156.59 73.3C157.03 73.1267 157.583 73.04 158.25 73.04C158.983 73.04 159.637 73.2 160.21 73.52C160.797 73.8267 161.263 74.28 161.61 74.88C161.957 75.4667 162.13 76.2 162.13 77.08V83H160.55V77.2C160.55 76.2267 160.303 75.52 159.81 75.08C159.33 74.64 158.677 74.42 157.85 74.42C156.903 74.42 156.13 74.7267 155.53 75.34C154.943 75.9533 154.65 76.8667 154.65 78.08V83H153.07Z" fill="#DBDBDB"/>
<path d="M7.464 24.336C6.2 24.336 5.08 24.112 4.104 23.664C3.128 23.216 2.36 22.56 1.8 21.696C1.256 20.816 0.984 19.752 0.984 18.504V17.904H3.552V18.504C3.552 19.688 3.904 20.576 4.608 21.168C5.328 21.76 6.28 22.056 7.464 22.056C8.664 22.056 9.568 21.808 10.176 21.312C10.784 20.8 11.088 20.144 11.088 19.344C11.088 18.816 10.944 18.384 10.656 18.048C10.368 17.712 9.96 17.448 9.432 17.256C8.904 17.048 8.272 16.856 7.536 16.68L6.648 16.464C5.576 16.208 4.64 15.896 3.84 15.528C3.056 15.144 2.448 14.64 2.016 14.016C1.584 13.392 1.368 12.592 1.368 11.616C1.368 10.624 1.608 9.776 2.088 9.072C2.584 8.368 3.264 7.824 4.128 7.44C4.992 7.056 6.008 6.864 7.176 6.864C8.344 6.864 9.384 7.064 10.296 7.464C11.224 7.864 11.952 8.456 12.48 9.24C13.008 10.024 13.272 11.008 13.272 12.192V13.056H10.704V12.192C10.704 11.472 10.552 10.888 10.248 10.44C9.96 9.992 9.552 9.664 9.024 9.456C8.496 9.248 7.88 9.144 7.176 9.144C6.152 9.144 5.352 9.36 4.776 9.792C4.216 10.208 3.936 10.792 3.936 11.544C3.936 12.056 4.056 12.48 4.296 12.816C4.552 13.136 4.92 13.4 5.4 13.608C5.88 13.816 6.48 14 7.2 14.16L8.088 14.376C9.176 14.616 10.136 14.928 10.968 15.312C11.8 15.68 12.456 16.184 12.936 16.824C13.416 17.464 13.656 18.288 13.656 19.296C13.656 20.304 13.4 21.184 12.888 21.936C12.392 22.688 11.68 23.28 10.752 23.712C9.824 24.128 8.728 24.336 7.464 24.336ZM21.993 24.336C20.809 24.336 19.753 24.096 18.825 23.616C17.913 23.12 17.193 22.416 16.665 21.504C16.137 20.592 15.873 19.512 15.873 18.264V17.904C15.873 16.656 16.137 15.584 16.665 14.688C17.193 13.776 17.913 13.072 18.825 12.576C19.753 12.08 20.809 11.832 21.993 11.832C23.177 11.832 24.233 12.08 25.161 12.576C26.089 13.072 26.817 13.776 27.345 14.688C27.873 15.584 28.137 16.656 28.137 17.904V18.264C28.137 19.512 27.873 20.592 27.345 21.504C26.817 22.416 26.089 23.12 25.161 23.616C24.233 24.096 23.177 24.336 21.993 24.336ZM21.993 22.128C23.081 22.128 23.961 21.784 24.633 21.096C25.321 20.392 25.665 19.424 25.665 18.192V17.976C25.665 16.744 25.329 15.784 24.657 15.096C23.985 14.392 23.097 14.04 21.993 14.04C20.921 14.04 20.041 14.392 19.353 15.096C18.681 15.784 18.345 16.744 18.345 17.976V18.192C18.345 19.424 18.681 20.392 19.353 21.096C20.041 21.784 20.921 22.128 21.993 22.128ZM36.7106 24.336C35.5746 24.336 34.5426 24.096 33.6146 23.616C32.7026 23.136 31.9746 22.44 31.4306 21.528C30.9026 20.616 30.6386 19.52 30.6386 18.24V17.928C30.6386 16.648 30.9026 15.56 31.4306 14.664C31.9746 13.752 32.7026 13.056 33.6146 12.576C34.5426 12.08 35.5746 11.832 36.7106 11.832C37.8466 11.832 38.8146 12.04 39.6146 12.456C40.4146 12.872 41.0546 13.424 41.5346 14.112C42.0306 14.8 42.3506 15.56 42.4946 16.392L40.0946 16.896C40.0146 16.368 39.8466 15.888 39.5906 15.456C39.3346 15.024 38.9746 14.68 38.5106 14.424C38.0466 14.168 37.4626 14.04 36.7586 14.04C36.0706 14.04 35.4466 14.2 34.8866 14.52C34.3426 14.824 33.9106 15.272 33.5906 15.864C33.2706 16.44 33.1106 17.144 33.1106 17.976V18.192C33.1106 19.024 33.2706 19.736 33.5906 20.328C33.9106 20.92 34.3426 21.368 34.8866 21.672C35.4466 21.976 36.0706 22.128 36.7586 22.128C37.7986 22.128 38.5906 21.864 39.1346 21.336C39.6786 20.792 40.0226 20.104 40.1666 19.272L42.5666 19.824C42.3746 20.64 42.0306 21.392 41.5346 22.08C41.0546 22.768 40.4146 23.32 39.6146 23.736C38.8146 24.136 37.8466 24.336 36.7106 24.336ZM45.4178 24V12.168H47.8898V24H45.4178ZM46.6658 10.56C46.1858 10.56 45.7778 10.408 45.4418 10.104C45.1218 9.784 44.9618 9.376 44.9618 8.88C44.9618 8.384 45.1218 7.984 45.4418 7.68C45.7778 7.36 46.1858 7.2 46.6658 7.2C47.1618 7.2 47.5698 7.36 47.8898 7.68C48.2098 7.984 48.3698 8.384 48.3698 8.88C48.3698 9.376 48.2098 9.784 47.8898 10.104C47.5698 10.408 47.1618 10.56 46.6658 10.56ZM55.2304 24.336C54.3824 24.336 53.6224 24.192 52.9504 23.904C52.2944 23.616 51.7664 23.192 51.3664 22.632C50.9824 22.072 50.7904 21.392 50.7904 20.592C50.7904 19.776 50.9824 19.104 51.3664 18.576C51.7664 18.032 52.3024 17.624 52.9744 17.352C53.6624 17.08 54.4384 16.944 55.3024 16.944H58.9024V16.176C58.9024 15.488 58.6944 14.936 58.2784 14.52C57.8624 14.104 57.2224 13.896 56.3584 13.896C55.5104 13.896 54.8624 14.096 54.4144 14.496C53.9664 14.896 53.6704 15.416 53.5264 16.056L51.2224 15.312C51.4144 14.672 51.7184 14.096 52.1344 13.584C52.5664 13.056 53.1344 12.632 53.8384 12.312C54.5424 11.992 55.3904 11.832 56.3824 11.832C57.9184 11.832 59.1264 12.224 60.0064 13.008C60.8864 13.792 61.3264 14.904 61.3264 16.344V21.216C61.3264 21.696 61.5504 21.936 61.9984 21.936H63.0064V24H61.1584C60.5984 24 60.1424 23.856 59.7904 23.568C59.4384 23.28 59.2624 22.888 59.2624 22.392V22.32H58.9024C58.7744 22.56 58.5824 22.84 58.3264 23.16C58.0704 23.48 57.6944 23.76 57.1984 24C56.7024 24.224 56.0464 24.336 55.2304 24.336ZM55.5904 22.296C56.5824 22.296 57.3824 22.016 57.9904 21.456C58.5984 20.88 58.9024 20.096 58.9024 19.104V18.864H55.4464C54.7904 18.864 54.2624 19.008 53.8624 19.296C53.4624 19.568 53.2624 19.976 53.2624 20.52C53.2624 21.064 53.4704 21.496 53.8864 21.816C54.3024 22.136 54.8704 22.296 55.5904 22.296ZM65.4099 24V7.2H67.8819V24H65.4099ZM77.5958 24V7.2H82.5878L87.1478 22.272H87.5318V7.2H90.0998V24H85.1078L80.5478 8.904H80.1638V24H77.5958ZM99.0996 24.336C97.8996 24.336 96.8516 24.088 95.9556 23.592C95.0596 23.08 94.3556 22.368 93.8436 21.456C93.3476 20.528 93.0996 19.456 93.0996 18.24V17.952C93.0996 16.72 93.3476 15.648 93.8436 14.736C94.3396 13.808 95.0276 13.096 95.9076 12.6C96.8036 12.088 97.8356 11.832 99.0036 11.832C100.14 11.832 101.132 12.088 101.98 12.6C102.844 13.096 103.516 13.792 103.996 14.688C104.476 15.584 104.716 16.632 104.716 17.832V18.768H95.6196C95.6516 19.808 95.9956 20.64 96.6516 21.264C97.3236 21.872 98.1556 22.176 99.1476 22.176C100.076 22.176 100.772 21.968 101.236 21.552C101.716 21.136 102.084 20.656 102.34 20.112L104.38 21.168C104.156 21.616 103.828 22.088 103.396 22.584C102.98 23.08 102.428 23.496 101.74 23.832C101.052 24.168 100.172 24.336 99.0996 24.336ZM95.6436 16.872H102.196C102.132 15.976 101.812 15.28 101.236 14.784C100.66 14.272 99.9076 14.016 98.9796 14.016C98.0516 14.016 97.2916 14.272 96.6996 14.784C96.1236 15.28 95.7716 15.976 95.6436 16.872ZM111.686 24C110.966 24 110.39 23.784 109.958 23.352C109.542 22.92 109.334 22.344 109.334 21.624V14.256H106.07V12.168H109.334V8.256H111.806V12.168H115.334V14.256H111.806V21.192C111.806 21.672 112.03 21.912 112.478 21.912H114.95V24H111.686ZM119.534 24L117.518 12.168H119.99L121.478 22.344H121.862L123.926 12.168H127.934L129.974 22.344H130.358L131.846 12.168H134.318L132.302 24H128.15L126.11 13.848H125.726L123.686 24H119.534ZM142.649 24.336C141.465 24.336 140.409 24.096 139.481 23.616C138.569 23.12 137.849 22.416 137.321 21.504C136.793 20.592 136.529 19.512 136.529 18.264V17.904C136.529 16.656 136.793 15.584 137.321 14.688C137.849 13.776 138.569 13.072 139.481 12.576C140.409 12.08 141.465 11.832 142.649 11.832C143.833 11.832 144.889 12.08 145.817 12.576C146.745 13.072 147.473 13.776 148.001 14.688C148.529 15.584 148.793 16.656 148.793 17.904V18.264C148.793 19.512 148.529 20.592 148.001 21.504C147.473 22.416 146.745 23.12 145.817 23.616C144.889 24.096 143.833 24.336 142.649 24.336ZM142.649 22.128C143.737 22.128 144.617 21.784 145.289 21.096C145.977 20.392 146.321 19.424 146.321 18.192V17.976C146.321 16.744 145.985 15.784 145.313 15.096C144.641 14.392 143.753 14.04 142.649 14.04C141.577 14.04 140.697 14.392 140.009 15.096C139.337 15.784 139.001 16.744 139.001 17.976V18.192C139.001 19.424 139.337 20.392 140.009 21.096C140.697 21.784 141.577 22.128 142.649 22.128ZM151.871 24V12.168H154.295V13.56H154.679C154.871 13.064 155.175 12.704 155.591 12.48C156.023 12.24 156.551 12.12 157.175 12.12H158.591V14.352H157.079C156.279 14.352 155.623 14.576 155.111 15.024C154.599 15.456 154.343 16.128 154.343 17.04V24H151.871ZM161.152 24V7.2H163.624V16.776H164.008L168.664 12.168H171.952L165.976 17.904L172.144 24H168.88L164.008 19.08H163.624V24H161.152ZM178.914 24.336C177.41 24.336 176.162 24 175.17 23.328C174.178 22.656 173.57 21.64 173.346 20.28L175.65 19.728C175.778 20.384 175.994 20.904 176.298 21.288C176.602 21.672 176.978 21.944 177.426 22.104C177.89 22.264 178.386 22.344 178.914 22.344C179.698 22.344 180.298 22.192 180.714 21.888C181.146 21.584 181.362 21.192 181.362 20.712C181.362 20.232 181.162 19.88 180.762 19.656C180.362 19.432 179.77 19.248 178.986 19.104L178.17 18.96C177.37 18.816 176.642 18.608 175.986 18.336C175.33 18.064 174.81 17.688 174.426 17.208C174.042 16.728 173.85 16.112 173.85 15.36C173.85 14.24 174.266 13.376 175.098 12.768C175.93 12.144 177.034 11.832 178.41 11.832C179.738 11.832 180.826 12.136 181.674 12.744C182.538 13.336 183.098 14.144 183.354 15.168L181.05 15.816C180.906 15.096 180.602 14.592 180.138 14.304C179.674 14 179.098 13.848 178.41 13.848C177.738 13.848 177.21 13.976 176.826 14.232C176.442 14.472 176.25 14.816 176.25 15.264C176.25 15.744 176.434 16.096 176.802 16.32C177.186 16.544 177.698 16.712 178.338 16.824L179.178 16.968C180.026 17.112 180.802 17.312 181.506 17.568C182.21 17.824 182.762 18.192 183.162 18.672C183.578 19.152 183.786 19.792 183.786 20.592C183.786 21.776 183.346 22.696 182.466 23.352C181.586 24.008 180.402 24.336 178.914 24.336Z" fill="#A0A0A0"/>
<path d="M52.6 124V110H54.28V124H52.6ZM57.5428 124V114.22H59.0828V115.88H59.3628C59.5761 115.413 59.9361 114.993 60.4428 114.62C60.9628 114.233 61.7228 114.04 62.7228 114.04C63.4561 114.04 64.1095 114.193 64.6828 114.5C65.2695 114.807 65.7361 115.26 66.0828 115.86C66.4295 116.46 66.6028 117.2 66.6028 118.08V124H65.0228V118.2C65.0228 117.227 64.7761 116.52 64.2828 116.08C63.8028 115.64 63.1495 115.42 62.3228 115.42C61.3761 115.42 60.6028 115.727 60.0028 116.34C59.4161 116.953 59.1228 117.867 59.1228 119.08V124H57.5428ZM69.8084 124V114.22H71.3484V115.88H71.6284C71.8418 115.413 72.2018 114.993 72.7084 114.62C73.2284 114.233 73.9884 114.04 74.9884 114.04C75.7218 114.04 76.3751 114.193 76.9484 114.5C77.5351 114.807 78.0018 115.26 78.3484 115.86C78.6951 116.46 78.8684 117.2 78.8684 118.08V124H77.2884V118.2C77.2884 117.227 77.0418 116.52 76.5484 116.08C76.0684 115.64 75.4151 115.42 74.5884 115.42C73.6418 115.42 72.8684 115.727 72.2684 116.34C71.6818 116.953 71.3884 117.867 71.3884 119.08V124H69.8084ZM86.5941 124.28C85.6074 124.28 84.7341 124.073 83.9741 123.66C83.2274 123.247 82.6407 122.667 82.2141 121.92C81.8007 121.16 81.5941 120.267 81.5941 119.24V118.98C81.5941 117.967 81.8007 117.08 82.2141 116.32C82.6407 115.56 83.2274 114.973 83.9741 114.56C84.7341 114.147 85.6074 113.94 86.5941 113.94C87.5807 113.94 88.4474 114.147 89.1941 114.56C89.9541 114.973 90.5407 115.56 90.9541 116.32C91.3807 117.08 91.5941 117.967 91.5941 118.98V119.24C91.5941 120.267 91.3807 121.16 90.9541 121.92C90.5407 122.667 89.9541 123.247 89.1941 123.66C88.4474 124.073 87.5807 124.28 86.5941 124.28ZM86.5941 122.86C87.6341 122.86 88.4607 122.533 89.0741 121.88C89.7007 121.213 90.0141 120.32 90.0141 119.2V119.02C90.0141 117.9 89.7007 117.013 89.0741 116.36C88.4607 115.693 87.6341 115.36 86.5941 115.36C85.5674 115.36 84.7407 115.693 84.1141 116.36C83.4874 117.013 83.1741 117.9 83.1741 119.02V119.2C83.1741 120.32 83.4874 121.213 84.1141 121.88C84.7407 122.533 85.5674 122.86 86.5941 122.86ZM94.3773 124V110H96.0573V122.48H103.137V124H94.3773ZM108.355 124.28C107.675 124.28 107.055 124.16 106.495 123.92C105.935 123.68 105.495 123.333 105.175 122.88C104.855 122.427 104.695 121.873 104.695 121.22C104.695 120.553 104.855 120.007 105.175 119.58C105.495 119.14 105.935 118.813 106.495 118.6C107.055 118.373 107.682 118.26 108.375 118.26H111.675V117.54C111.675 116.847 111.469 116.3 111.055 115.9C110.655 115.5 110.055 115.3 109.255 115.3C108.469 115.3 107.855 115.493 107.415 115.88C106.975 116.253 106.675 116.76 106.515 117.4L105.035 116.92C105.195 116.373 105.449 115.88 105.795 115.44C106.142 114.987 106.602 114.627 107.175 114.36C107.762 114.08 108.462 113.94 109.275 113.94C110.529 113.94 111.502 114.267 112.195 114.92C112.889 115.56 113.235 116.467 113.235 117.64V122.06C113.235 122.46 113.422 122.66 113.795 122.66H114.695V124H113.315C112.875 124 112.522 123.88 112.255 123.64C111.989 123.387 111.855 123.053 111.855 122.64V122.54H111.615C111.469 122.793 111.269 123.06 111.015 123.34C110.775 123.607 110.442 123.827 110.015 124C109.589 124.187 109.035 124.28 108.355 124.28ZM108.535 122.92C109.469 122.92 110.222 122.647 110.795 122.1C111.382 121.54 111.675 120.76 111.675 119.76V119.54H108.435C107.809 119.54 107.289 119.68 106.875 119.96C106.475 120.227 106.275 120.633 106.275 121.18C106.275 121.727 106.482 122.153 106.895 122.46C107.322 122.767 107.869 122.92 108.535 122.92ZM120.345 124.18C119.639 124.18 118.985 124.027 118.385 123.72C117.799 123.413 117.332 122.96 116.985 122.36C116.652 121.747 116.485 121.007 116.485 120.14V114.22H118.065V120.02C118.065 120.993 118.305 121.7 118.785 122.14C119.279 122.58 119.939 122.8 120.765 122.8C121.699 122.8 122.465 122.493 123.065 121.88C123.665 121.267 123.965 120.353 123.965 119.14V114.22H125.545V124H124.005V122.34H123.725C123.512 122.807 123.145 123.233 122.625 123.62C122.105 123.993 121.345 124.18 120.345 124.18ZM128.851 124V114.22H130.391V115.88H130.671C130.885 115.413 131.245 114.993 131.751 114.62C132.271 114.233 133.031 114.04 134.031 114.04C134.765 114.04 135.418 114.193 135.991 114.5C136.578 114.807 137.045 115.26 137.391 115.86C137.738 116.46 137.911 117.2 137.911 118.08V124H136.331V118.2C136.331 117.227 136.085 116.52 135.591 116.08C135.111 115.64 134.458 115.42 133.631 115.42C132.685 115.42 131.911 115.727 131.311 116.34C130.725 116.953 130.431 117.867 130.431 119.08V124H128.851ZM145.617 124.28C144.67 124.28 143.817 124.08 143.057 123.68C142.31 123.267 141.717 122.68 141.277 121.92C140.85 121.16 140.637 120.26 140.637 119.22V119C140.637 117.947 140.85 117.047 141.277 116.3C141.717 115.54 142.31 114.96 143.057 114.56C143.817 114.147 144.67 113.94 145.617 113.94C146.55 113.94 147.344 114.113 147.997 114.46C148.664 114.807 149.184 115.267 149.557 115.84C149.944 116.413 150.19 117.027 150.297 117.68L148.757 118C148.69 117.52 148.53 117.08 148.277 116.68C148.037 116.28 147.697 115.96 147.257 115.72C146.817 115.48 146.277 115.36 145.637 115.36C144.984 115.36 144.397 115.507 143.877 115.8C143.37 116.093 142.964 116.513 142.657 117.06C142.364 117.607 142.217 118.26 142.217 119.02V119.2C142.217 119.96 142.364 120.613 142.657 121.16C142.964 121.707 143.37 122.127 143.877 122.42C144.397 122.713 144.984 122.86 145.637 122.86C146.61 122.86 147.35 122.607 147.857 122.1C148.377 121.593 148.697 120.967 148.817 120.22L150.377 120.56C150.23 121.2 149.964 121.807 149.577 122.38C149.19 122.953 148.664 123.413 147.997 123.76C147.344 124.107 146.55 124.28 145.617 124.28ZM153.07 124V110H154.65V115.78H154.93C155.063 115.487 155.263 115.213 155.53 114.96C155.81 114.693 156.163 114.473 156.59 114.3C157.03 114.127 157.583 114.04 158.25 114.04C158.983 114.04 159.637 114.2 160.21 114.52C160.797 114.827 161.263 115.28 161.61 115.88C161.957 116.467 162.13 117.2 162.13 118.08V124H160.55V118.2C160.55 117.227 160.303 116.52 159.81 116.08C159.33 115.64 158.677 115.42 157.85 115.42C156.903 115.42 156.13 115.727 155.53 116.34C154.943 116.953 154.65 117.867 154.65 119.08V124H153.07Z" fill="#DBDBDB"/>
<path d="M19.8 67H28.2C31.4 67 34 69.6 34 72.8V81.2C34 82.7383 33.3889 84.2135 32.3012 85.3012C31.2135 86.3889 29.7383 87 28.2 87H19.8C16.6 87 14 84.4 14 81.2V72.8C14 71.2617 14.6111 69.7865 15.6988 68.6988C16.7865 67.6111 18.2617 67 19.8 67ZM19.6 69C18.6452 69 17.7295 69.3793 17.0544 70.0544C16.3793 70.7295 16 71.6452 16 72.6V81.4C16 83.39 17.61 85 19.6 85H28.4C29.3548 85 30.2705 84.6207 30.9456 83.9456C31.6207 83.2705 32 82.3548 32 81.4V72.6C32 70.61 30.39 69 28.4 69H19.6ZM29.25 70.5C29.5815 70.5 29.8995 70.6317 30.1339 70.8661C30.3683 71.1005 30.5 71.4185 30.5 71.75C30.5 72.0815 30.3683 72.3995 30.1339 72.6339C29.8995 72.8683 29.5815 73 29.25 73C28.9185 73 28.6005 72.8683 28.3661 72.6339C28.1317 72.3995 28 72.0815 28 71.75C28 71.4185 28.1317 71.1005 28.3661 70.8661C28.6005 70.6317 28.9185 70.5 29.25 70.5ZM24 72C25.3261 72 26.5979 72.5268 27.5355 73.4645C28.4732 74.4021 29 75.6739 29 77C29 78.3261 28.4732 79.5979 27.5355 80.5355C26.5979 81.4732 25.3261 82 24 82C22.6739 82 21.4021 81.4732 20.4645 80.5355C19.5268 79.5979 19 78.3261 19 77C19 75.6739 19.5268 74.4021 20.4645 73.4645C21.4021 72.5268 22.6739 72 24 72ZM24 74C23.2044 74 22.4413 74.3161 21.8787 74.8787C21.3161 75.4413 21 76.2044 21 77C21 77.7956 21.3161 78.5587 21.8787 79.1213C22.4413 79.6839 23.2044 80 24 80C24.7956 80 25.5587 79.6839 26.1213 79.1213C26.6839 78.5587 27 77.7956 27 77C27 76.2044 26.6839 75.4413 26.1213 74.8787C25.5587 74.3161 24.7956 74 24 74Z" fill="#DBDBDB"/>
<path d="M30.901 106.153H34.581L26.541 115.343L36 127.846H28.594L22.794 120.262L16.156 127.846H12.474L21.074 118.016L12 106.154H19.594L24.837 113.086L30.901 106.153ZM29.61 125.644H31.649L18.486 108.24H16.298L29.61 125.644Z" fill="#DBDBDB"/>
</svg>
