<svg width="197" height="43" viewBox="0 0 197 43" fill="none" xmlns="http://www.w3.org/2000/svg">
<path d="M51.6 28V14H53.28V28H51.6ZM56.5428 28V18.22H58.0828V19.88H58.3628C58.5761 19.4133 58.9361 18.9933 59.4428 18.62C59.9628 18.2333 60.7228 18.04 61.7228 18.04C62.4561 18.04 63.1095 18.1933 63.6828 18.5C64.2695 18.8067 64.7361 19.26 65.0828 19.86C65.4295 20.46 65.6028 21.2 65.6028 22.08V28H64.0228V22.2C64.0228 21.2267 63.7761 20.52 63.2828 20.08C62.8028 19.64 62.1495 19.42 61.3228 19.42C60.3761 19.42 59.6028 19.7267 59.0028 20.34C58.4161 20.9533 58.1228 21.8667 58.1228 23.08V28H56.5428ZM68.8084 28V18.22H70.3484V19.88H70.6284C70.8418 19.4133 71.2018 18.9933 71.7084 18.62C72.2284 18.2333 72.9884 18.04 73.9884 18.04C74.7218 18.04 75.3751 18.1933 75.9484 18.5C76.5351 18.8067 77.0018 19.26 77.3484 19.86C77.6951 20.46 77.8684 21.2 77.8684 22.08V28H76.2884V22.2C76.2884 21.2267 76.0418 20.52 75.5484 20.08C75.0684 19.64 74.4151 19.42 73.5884 19.42C72.6418 19.42 71.8684 19.7267 71.2684 20.34C70.6818 20.9533 70.3884 21.8667 70.3884 23.08V28H68.8084ZM85.5941 28.28C84.6074 28.28 83.7341 28.0733 82.9741 27.66C82.2274 27.2467 81.6407 26.6667 81.2141 25.92C80.8007 25.16 80.5941 24.2667 80.5941 23.24V22.98C80.5941 21.9667 80.8007 21.08 81.2141 20.32C81.6407 19.56 82.2274 18.9733 82.9741 18.56C83.7341 18.1467 84.6074 17.94 85.5941 17.94C86.5807 17.94 87.4474 18.1467 88.1941 18.56C88.9541 18.9733 89.5407 19.56 89.9541 20.32C90.3807 21.08 90.5941 21.9667 90.5941 22.98V23.24C90.5941 24.2667 90.3807 25.16 89.9541 25.92C89.5407 26.6667 88.9541 27.2467 88.1941 27.66C87.4474 28.0733 86.5807 28.28 85.5941 28.28ZM85.5941 26.86C86.6341 26.86 87.4607 26.5333 88.0741 25.88C88.7007 25.2133 89.0141 24.32 89.0141 23.2V23.02C89.0141 21.9 88.7007 21.0133 88.0741 20.36C87.4607 19.6933 86.6341 19.36 85.5941 19.36C84.5674 19.36 83.7407 19.6933 83.1141 20.36C82.4874 21.0133 82.1741 21.9 82.1741 23.02V23.2C82.1741 24.32 82.4874 25.2133 83.1141 25.88C83.7407 26.5333 84.5674 26.86 85.5941 26.86ZM93.3773 28V14H95.0573V26.48H102.137V28H93.3773ZM107.355 28.28C106.675 28.28 106.055 28.16 105.495 27.92C104.935 27.68 104.495 27.3333 104.175 26.88C103.855 26.4267 103.695 25.8733 103.695 25.22C103.695 24.5533 103.855 24.0067 104.175 23.58C104.495 23.14 104.935 22.8133 105.495 22.6C106.055 22.3733 106.682 22.26 107.375 22.26H110.675V21.54C110.675 20.8467 110.469 20.3 110.055 19.9C109.655 19.5 109.055 19.3 108.255 19.3C107.469 19.3 106.855 19.4933 106.415 19.88C105.975 20.2533 105.675 20.76 105.515 21.4L104.035 20.92C104.195 20.3733 104.449 19.88 104.795 19.44C105.142 18.9867 105.602 18.6267 106.175 18.36C106.762 18.08 107.462 17.94 108.275 17.94C109.529 17.94 110.502 18.2667 111.195 18.92C111.889 19.56 112.235 20.4667 112.235 21.64V26.06C112.235 26.46 112.422 26.66 112.795 26.66H113.695V28H112.315C111.875 28 111.522 27.88 111.255 27.64C110.989 27.3867 110.855 27.0533 110.855 26.64V26.54H110.615C110.469 26.7933 110.269 27.06 110.015 27.34C109.775 27.6067 109.442 27.8267 109.015 28C108.589 28.1867 108.035 28.28 107.355 28.28ZM107.535 26.92C108.469 26.92 109.222 26.6467 109.795 26.1C110.382 25.54 110.675 24.76 110.675 23.76V23.54H107.435C106.809 23.54 106.289 23.68 105.875 23.96C105.475 24.2267 105.275 24.6333 105.275 25.18C105.275 25.7267 105.482 26.1533 105.895 26.46C106.322 26.7667 106.869 26.92 107.535 26.92ZM119.345 28.18C118.639 28.18 117.985 28.0267 117.385 27.72C116.799 27.4133 116.332 26.96 115.985 26.36C115.652 25.7467 115.485 25.0067 115.485 24.14V18.22H117.065V24.02C117.065 24.9933 117.305 25.7 117.785 26.14C118.279 26.58 118.939 26.8 119.765 26.8C120.699 26.8 121.465 26.4933 122.065 25.88C122.665 25.2667 122.965 24.3533 122.965 23.14V18.22H124.545V28H123.005V26.34H122.725C122.512 26.8067 122.145 27.2333 121.625 27.62C121.105 27.9933 120.345 28.18 119.345 28.18ZM127.851 28V18.22H129.391V19.88H129.671C129.885 19.4133 130.245 18.9933 130.751 18.62C131.271 18.2333 132.031 18.04 133.031 18.04C133.765 18.04 134.418 18.1933 134.991 18.5C135.578 18.8067 136.045 19.26 136.391 19.86C136.738 20.46 136.911 21.2 136.911 22.08V28H135.331V22.2C135.331 21.2267 135.085 20.52 134.591 20.08C134.111 19.64 133.458 19.42 132.631 19.42C131.685 19.42 130.911 19.7267 130.311 20.34C129.725 20.9533 129.431 21.8667 129.431 23.08V28H127.851ZM144.617 28.28C143.67 28.28 142.817 28.08 142.057 27.68C141.31 27.2667 140.717 26.68 140.277 25.92C139.85 25.16 139.637 24.26 139.637 23.22V23C139.637 21.9467 139.85 21.0467 140.277 20.3C140.717 19.54 141.31 18.96 142.057 18.56C142.817 18.1467 143.67 17.94 144.617 17.94C145.55 17.94 146.344 18.1133 146.997 18.46C147.664 18.8067 148.184 19.2667 148.557 19.84C148.944 20.4133 149.19 21.0267 149.297 21.68L147.757 22C147.69 21.52 147.53 21.08 147.277 20.68C147.037 20.28 146.697 19.96 146.257 19.72C145.817 19.48 145.277 19.36 144.637 19.36C143.984 19.36 143.397 19.5067 142.877 19.8C142.37 20.0933 141.964 20.5133 141.657 21.06C141.364 21.6067 141.217 22.26 141.217 23.02V23.2C141.217 23.96 141.364 24.6133 141.657 25.16C141.964 25.7067 142.37 26.1267 142.877 26.42C143.397 26.7133 143.984 26.86 144.637 26.86C145.61 26.86 146.35 26.6067 146.857 26.1C147.377 25.5933 147.697 24.9667 147.817 24.22L149.377 24.56C149.23 25.2 148.964 25.8067 148.577 26.38C148.19 26.9533 147.664 27.4133 146.997 27.76C146.344 28.1067 145.55 28.28 144.617 28.28ZM152.07 28V14H153.65V19.78H153.93C154.063 19.4867 154.263 19.2133 154.53 18.96C154.81 18.6933 155.163 18.4733 155.59 18.3C156.03 18.1267 156.583 18.04 157.25 18.04C157.983 18.04 158.637 18.2 159.21 18.52C159.797 18.8267 160.263 19.28 160.61 19.88C160.957 20.4667 161.13 21.2 161.13 22.08V28H159.55V22.2C159.55 21.2267 159.303 20.52 158.81 20.08C158.33 19.64 157.677 19.42 156.85 19.42C155.903 19.42 155.13 19.7267 154.53 20.34C153.943 20.9533 153.65 21.8667 153.65 23.08V28H152.07Z" fill="#E7E5E6"/>
<path d="M7.49505 18.626L4.65347 19.3923L1 25.14L6.27723 30.2371M18.4554 41.9998L12.3663 36.1185M18.4554 41.9998L21.703 36.2521M18.4554 41.9998L24.9505 39.8102M21.703 36.2521L27.7921 34.4129M21.703 36.2521L18.6584 33.3783L17.7799 32.5521L15.2079 32.4204M4.65347 19.7755L9.52475 24.4831M9.52475 24.4831L6.27723 30.2371M9.52475 24.4831L12.3663 27.0559M6.27723 30.2371L12.3663 36.1185M12.3663 36.1185L14.8704 31.7897M14.8704 31.7897L13.5842 29.3549L12.3663 27.0559M14.8704 31.7897L15.2079 32.4204M24.9505 39.8102L27.7921 34.4129M24.9505 39.8102L30.9584 37.7849M27.7921 34.4129L31.0396 33.1867L30.9607 33.2165L37.9406 33.5699L33.3391 33.3369M30.9584 37.7849L35.505 36.2521L36.7228 33.5082L33.3391 33.3369M30.9584 37.7849L33.3391 33.3369M12.3663 27.0559L15.0392 32.105L15.2079 32.4204M12.3663 27.0559L15.2079 32.4204" stroke="#B084D3" stroke-linecap="round" stroke-linejoin="round"/>
<path d="M12.7721 9.81287L9.52456 9.42969M9.52456 9.42969L5.87109 15.1774L8.56834 20.1587M9.52456 9.42969L12.7721 14.411M15.2077 32.4203L11.9602 26.2895M15.2077 32.4203L18.8612 26.2895M15.2077 32.4203L24.1384 32.8719M41.9998 27.8222L37.9404 33.5699L31.0394 33.2209M41.9998 27.8222H39.1582L37.9404 29.7381M41.9998 27.8222L40.782 25.5231M18.8612 26.2895L16.8315 22.8409L12.3661 21.3082M18.8612 26.2895L27.3859 26.6727M12.7721 14.411L8.56834 20.1587M12.7721 14.411L12.3661 21.3082M8.56834 20.1587L11.9602 26.2895M11.9602 26.2895L15.0579 22.2321L12.3661 21.3082M27.3859 26.6727L24.1384 32.8719M27.3859 26.6727L25.7622 25.9063L30.2275 27.439L37.9404 29.7381M24.1384 32.8719L31.0394 33.2209M31.0394 33.2209L33.881 28.5281L37.9404 29.7381" stroke="#D3FF4E" stroke-linecap="round" stroke-linejoin="round"/>
<path d="M12.3662 21.3084L16.0197 15.1776M12.3662 21.3084L21.2969 24.3738M12.3662 21.3084L12.7374 15.1776M41.5939 23.9907L37.9405 29.7383L30.2276 27.4393M41.5939 23.9907L33.4751 21.3084M41.5939 23.9907L41.188 18.243M16.0197 15.1776L16.4256 9.42991M16.0197 15.1776L24.9504 18.243M16.8316 1L13.1781 7.8972L12.9925 10.9626M16.8316 1L16.4256 5.59813M16.8316 1L24.9504 3.8943M16.4256 5.59813L16.4256 9.42991M16.4256 5.59813L12.9925 10.9626M16.4256 5.59813L28.6038 9.81308L40.7821 14.028M16.4256 9.42991L41.188 18.243M16.4256 9.42991L12.7374 15.1776M21.2969 24.3738L24.9504 18.243M21.2969 24.3738L30.2276 27.4393M24.9504 18.243L33.4751 21.3084M24.9504 18.243V3.8943M33.4751 21.3084L30.2276 27.4393M33.4751 21.3084V6.96846M33.4751 6.96846L24.9504 3.8943M33.4751 6.96846L26.4103 4.4486L40.3761 9.42991L40.7821 14.028M40.7821 14.028L41.188 18.243M12.9925 10.9626L12.7374 15.1776" stroke="#E7E5E6" stroke-linecap="round" stroke-linejoin="round"/>
<rect x="172" y="13.2939" width="25" height="7.72059" fill="#0040FF"/>
<rect x="172" y="21.0146" width="25" height="7.72059" fill="#D3FF4E"/>
</svg>
