<svg width="231" height="221" viewBox="0 0 231 221" fill="none" xmlns="http://www.w3.org/2000/svg">
<path d="M33.44 80.2V76.72H30V75.28H33.44V71.8H34.96V75.28H38.4V76.72H34.96V80.2H33.44ZM46.4623 83.28C45.4757 83.28 44.589 83.0933 43.8023 82.72C43.029 82.3467 42.4157 81.8067 41.9623 81.1C41.5223 80.3933 41.3023 79.54 41.3023 78.54V78.16H42.9223V78.52C42.9223 79.5467 43.249 80.3533 43.9023 80.94C44.5557 81.5267 45.409 81.82 46.4623 81.82C47.529 81.82 48.3557 81.5467 48.9423 81C49.5423 80.44 49.8423 79.74 49.8423 78.9V78.74C49.8423 78.1267 49.6957 77.6333 49.4023 77.26C49.109 76.8733 48.709 76.5933 48.2023 76.42C47.709 76.2333 47.1623 76.14 46.5623 76.14H44.2823V74.12L49.6223 70.7V70.46H41.6423V69H51.3423V71.26L46.1223 74.62V74.86H47.1223C47.909 74.86 48.629 75.0067 49.2823 75.3C49.949 75.58 50.4757 76.0067 50.8623 76.58C51.2623 77.14 51.4623 77.8467 51.4623 78.7V78.92C51.4623 79.8 51.2557 80.5667 50.8423 81.22C50.429 81.8733 49.849 82.38 49.1023 82.74C48.3557 83.1 47.4757 83.28 46.4623 83.28ZM58.6927 83.28C57.6127 83.28 56.6727 83.12 55.8727 82.8C55.086 82.4667 54.4727 82.0067 54.0327 81.42C53.606 80.82 53.3927 80.12 53.3927 79.32V79.1C53.3927 78.4067 53.5393 77.8333 53.8327 77.38C54.126 76.9267 54.4793 76.58 54.8927 76.34C55.3193 76.0867 55.7127 75.9267 56.0727 75.86V75.6C55.7127 75.4933 55.3393 75.32 54.9527 75.08C54.5793 74.84 54.266 74.5133 54.0127 74.1C53.7727 73.6867 53.6527 73.18 53.6527 72.58V72.36C53.6527 71.6 53.866 70.9533 54.2927 70.42C54.7327 69.8733 55.3327 69.4533 56.0927 69.16C56.8527 68.8667 57.7193 68.72 58.6927 68.72C59.6793 68.72 60.546 68.8667 61.2927 69.16C62.0527 69.4533 62.646 69.8733 63.0727 70.42C63.5127 70.9533 63.7327 71.6 63.7327 72.36V72.58C63.7327 73.18 63.6127 73.6867 63.3727 74.1C63.1327 74.5133 62.826 74.84 62.4527 75.08C62.0793 75.32 61.706 75.4933 61.3327 75.6V75.86C61.706 75.9267 62.0993 76.0867 62.5127 76.34C62.926 76.58 63.2727 76.9267 63.5527 77.38C63.846 77.8333 63.9927 78.4067 63.9927 79.1V79.32C63.9927 80.12 63.7793 80.82 63.3527 81.42C62.926 82.0067 62.3127 82.4667 61.5127 82.8C60.726 83.12 59.786 83.28 58.6927 83.28ZM58.6927 81.82C59.826 81.82 60.7193 81.6 61.3727 81.16C62.0393 80.72 62.3727 80.08 62.3727 79.24V79.08C62.3727 78.24 62.046 77.6 61.3927 77.16C60.7393 76.72 59.8393 76.5 58.6927 76.5C57.5593 76.5 56.666 76.72 56.0127 77.16C55.3593 77.6 55.0327 78.24 55.0327 79.08V79.24C55.0327 80.08 55.3593 80.72 56.0127 81.16C56.6793 81.6 57.5727 81.82 58.6927 81.82ZM58.6927 75.04C59.7593 75.04 60.5927 74.84 61.1927 74.44C61.806 74.0267 62.1127 73.4467 62.1127 72.7V72.54C62.1127 71.78 61.806 71.2 61.1927 70.8C60.5793 70.3867 59.746 70.18 58.6927 70.18C57.6393 70.18 56.806 70.3867 56.1927 70.8C55.5793 71.2 55.2727 71.78 55.2727 72.54V72.7C55.2727 73.4467 55.5793 74.0267 56.1927 74.44C56.806 74.84 57.6393 75.04 58.6927 75.04ZM71.3336 83.28C69.7469 83.28 68.4803 82.8133 67.5336 81.88C66.6003 80.9333 66.1336 79.52 66.1336 77.64V74.36C66.1336 72.4933 66.6003 71.0867 67.5336 70.14C68.4803 69.1933 69.7469 68.72 71.3336 68.72C72.9336 68.72 74.2003 69.1933 75.1336 70.14C76.0803 71.0867 76.5536 72.4933 76.5536 74.36V77.64C76.5536 79.52 76.0803 80.9333 75.1336 81.88C74.2003 82.8133 72.9336 83.28 71.3336 83.28ZM71.3336 81.82C72.5336 81.82 73.4336 81.46 74.0336 80.74C74.6336 80.02 74.9336 79.0133 74.9336 77.72V74.26C74.9336 72.9667 74.6269 71.9667 74.0136 71.26C73.4003 70.54 72.5069 70.18 71.3336 70.18C70.1603 70.18 69.2669 70.54 68.6536 71.26C68.0536 71.98 67.7536 72.98 67.7536 74.26V77.72C67.7536 79.0267 68.0536 80.04 68.6536 80.76C69.2536 81.4667 70.1469 81.82 71.3336 81.82ZM88.8628 83.28C87.8361 83.28 86.9561 83.1 86.2228 82.74C85.5028 82.3667 84.9561 81.86 84.5828 81.22C84.2095 80.58 84.0228 79.8533 84.0228 79.04H85.6428C85.6428 79.8667 85.9161 80.54 86.4628 81.06C87.0095 81.5667 87.8095 81.82 88.8628 81.82C89.9695 81.82 90.8161 81.5267 91.4028 80.94C92.0028 80.34 92.3028 79.52 92.3028 78.48V76.54H92.0428C91.7895 76.94 91.3828 77.3133 90.8228 77.66C90.2761 77.9933 89.5028 78.16 88.5028 78.16C87.6628 78.16 86.8895 77.9733 86.1828 77.6C85.4895 77.2267 84.9361 76.7 84.5228 76.02C84.1095 75.34 83.9028 74.5333 83.9028 73.6V73.36C83.9028 72.4 84.1228 71.58 84.5628 70.9C85.0028 70.2067 85.5961 69.6733 86.3428 69.3C87.1028 68.9133 87.9628 68.72 88.9228 68.72C89.8961 68.72 90.7561 68.9133 91.5028 69.3C92.2628 69.6733 92.8561 70.2133 93.2828 70.92C93.7095 71.6133 93.9228 72.4533 93.9228 73.44V78.32C93.9228 79.36 93.7161 80.2533 93.3028 81C92.9028 81.7333 92.3228 82.3 91.5628 82.7C90.8028 83.0867 89.9028 83.28 88.8628 83.28ZM88.9228 76.8C89.5895 76.8 90.1761 76.6667 90.6828 76.4C91.1895 76.12 91.5828 75.74 91.8628 75.26C92.1561 74.7667 92.3028 74.1933 92.3028 73.54V73.38C92.3028 72.38 91.9895 71.6 91.3628 71.04C90.7495 70.4667 89.9361 70.18 88.9228 70.18C87.9095 70.18 87.0895 70.4667 86.4628 71.04C85.8361 71.6 85.5228 72.38 85.5228 73.38V73.54C85.5228 74.1933 85.6628 74.7667 85.9428 75.26C86.2361 75.74 86.6361 76.12 87.1428 76.4C87.6628 76.6667 88.2561 76.8 88.9228 76.8ZM101.329 83.28C100.369 83.28 99.5089 83.0933 98.7489 82.72C98.0022 82.3333 97.4089 81.7867 96.9689 81.08C96.5422 80.3733 96.3289 79.5333 96.3289 78.56V73.68C96.3289 72.6267 96.5356 71.7333 96.9489 71C97.3622 70.2667 97.9422 69.7067 98.6889 69.32C99.4489 68.92 100.349 68.72 101.389 68.72C102.416 68.72 103.289 68.9067 104.009 69.28C104.742 69.64 105.296 70.14 105.669 70.78C106.056 71.4067 106.249 72.1333 106.249 72.96H104.609C104.609 72.1333 104.342 71.4667 103.809 70.96C103.276 70.44 102.469 70.18 101.389 70.18C100.296 70.18 99.4489 70.48 98.8489 71.08C98.2489 71.6667 97.9489 72.48 97.9489 73.52V75.46H98.2289C98.4689 75.06 98.8689 74.6933 99.4289 74.36C99.9889 74.0133 100.769 73.84 101.769 73.84C102.609 73.84 103.376 74.0267 104.069 74.4C104.762 74.7733 105.316 75.3 105.729 75.98C106.142 76.66 106.349 77.4667 106.349 78.4V78.64C106.349 79.5867 106.129 80.4067 105.689 81.1C105.262 81.7933 104.669 82.3333 103.909 82.72C103.149 83.0933 102.289 83.28 101.329 83.28ZM101.329 81.82C102.342 81.82 103.162 81.5333 103.789 80.96C104.416 80.3867 104.729 79.6067 104.729 78.62V78.46C104.729 77.7933 104.582 77.22 104.289 76.74C104.009 76.26 103.616 75.8867 103.109 75.62C102.602 75.34 102.009 75.2 101.329 75.2C100.662 75.2 100.076 75.34 99.5689 75.62C99.0622 75.8867 98.6622 76.26 98.3689 76.74C98.0889 77.22 97.9489 77.7933 97.9489 78.46V78.62C97.9489 79.6067 98.2622 80.3867 98.8889 80.96C99.5156 81.5333 100.329 81.82 101.329 81.82ZM113.572 83V81.54C113.572 80.54 113.745 79.74 114.092 79.14C114.452 78.54 114.945 78.06 115.572 77.7C116.212 77.3267 116.972 77.0067 117.852 76.74L118.952 76.4C119.552 76.2133 120.078 75.9867 120.532 75.72C120.985 75.44 121.338 75.0933 121.592 74.68C121.845 74.2533 121.972 73.7333 121.972 73.12V73.04C121.972 72.16 121.665 71.4667 121.052 70.96C120.438 70.44 119.652 70.18 118.692 70.18C117.678 70.18 116.852 70.4533 116.212 71C115.572 71.5333 115.252 72.3467 115.252 73.44V73.72H113.652V73.46C113.652 72.4467 113.872 71.5867 114.312 70.88C114.752 70.1733 115.352 69.64 116.112 69.28C116.872 68.9067 117.732 68.72 118.692 68.72C119.652 68.72 120.498 68.9 121.232 69.26C121.978 69.62 122.558 70.12 122.972 70.76C123.385 71.4 123.592 72.1467 123.592 73V73.18C123.592 74.0867 123.412 74.84 123.052 75.44C122.692 76.0267 122.192 76.5067 121.552 76.88C120.925 77.2533 120.185 77.5733 119.332 77.84L118.252 78.18C117.572 78.3933 117.005 78.62 116.552 78.86C116.112 79.0867 115.778 79.38 115.552 79.74C115.325 80.1 115.212 80.5867 115.212 81.2V81.54H123.472V83H113.572ZM125.623 83V81.54C125.623 80.54 125.796 79.74 126.143 79.14C126.503 78.54 126.996 78.06 127.623 77.7C128.263 77.3267 129.023 77.0067 129.903 76.74L131.003 76.4C131.603 76.2133 132.129 75.9867 132.583 75.72C133.036 75.44 133.389 75.0933 133.643 74.68C133.896 74.2533 134.023 73.7333 134.023 73.12V73.04C134.023 72.16 133.716 71.4667 133.103 70.96C132.489 70.44 131.703 70.18 130.743 70.18C129.729 70.18 128.903 70.4533 128.263 71C127.623 71.5333 127.303 72.3467 127.303 73.44V73.72H125.703V73.46C125.703 72.4467 125.923 71.5867 126.363 70.88C126.803 70.1733 127.403 69.64 128.163 69.28C128.923 68.9067 129.783 68.72 130.743 68.72C131.703 68.72 132.549 68.9 133.283 69.26C134.029 69.62 134.609 70.12 135.023 70.76C135.436 71.4 135.643 72.1467 135.643 73V73.18C135.643 74.0867 135.463 74.84 135.103 75.44C134.743 76.0267 134.243 76.5067 133.603 76.88C132.976 77.2533 132.236 77.5733 131.383 77.84L130.303 78.18C129.623 78.3933 129.056 78.62 128.603 78.86C128.163 79.0867 127.829 79.38 127.603 79.74C127.376 80.1 127.263 80.5867 127.263 81.2V81.54H135.523V83H125.623ZM137.673 83V81.54C137.673 80.54 137.847 79.74 138.193 79.14C138.553 78.54 139.047 78.06 139.673 77.7C140.313 77.3267 141.073 77.0067 141.953 76.74L143.053 76.4C143.653 76.2133 144.18 75.9867 144.633 75.72C145.087 75.44 145.44 75.0933 145.693 74.68C145.947 74.2533 146.073 73.7333 146.073 73.12V73.04C146.073 72.16 145.767 71.4667 145.153 70.96C144.54 70.44 143.753 70.18 142.793 70.18C141.78 70.18 140.953 70.4533 140.313 71C139.673 71.5333 139.353 72.3467 139.353 73.44V73.72H137.753V73.46C137.753 72.4467 137.973 71.5867 138.413 70.88C138.853 70.1733 139.453 69.64 140.213 69.28C140.973 68.9067 141.833 68.72 142.793 68.72C143.753 68.72 144.6 68.9 145.333 69.26C146.08 69.62 146.66 70.12 147.073 70.76C147.487 71.4 147.693 72.1467 147.693 73V73.18C147.693 74.0867 147.513 74.84 147.153 75.44C146.793 76.0267 146.293 76.5067 145.653 76.88C145.027 77.2533 144.287 77.5733 143.433 77.84L142.353 78.18C141.673 78.3933 141.107 78.62 140.653 78.86C140.213 79.0867 139.88 79.38 139.653 79.74C139.427 80.1 139.313 80.5867 139.313 81.2V81.54H147.573V83H137.673ZM160.021 83.28C158.941 83.28 158.001 83.12 157.201 82.8C156.414 82.4667 155.801 82.0067 155.361 81.42C154.934 80.82 154.721 80.12 154.721 79.32V79.1C154.721 78.4067 154.867 77.8333 155.161 77.38C155.454 76.9267 155.807 76.58 156.221 76.34C156.647 76.0867 157.041 75.9267 157.401 75.86V75.6C157.041 75.4933 156.667 75.32 156.281 75.08C155.907 74.84 155.594 74.5133 155.341 74.1C155.101 73.6867 154.981 73.18 154.981 72.58V72.36C154.981 71.6 155.194 70.9533 155.621 70.42C156.061 69.8733 156.661 69.4533 157.421 69.16C158.181 68.8667 159.047 68.72 160.021 68.72C161.007 68.72 161.874 68.8667 162.621 69.16C163.381 69.4533 163.974 69.8733 164.401 70.42C164.841 70.9533 165.061 71.6 165.061 72.36V72.58C165.061 73.18 164.941 73.6867 164.701 74.1C164.461 74.5133 164.154 74.84 163.781 75.08C163.407 75.32 163.034 75.4933 162.661 75.6V75.86C163.034 75.9267 163.427 76.0867 163.841 76.34C164.254 76.58 164.601 76.9267 164.881 77.38C165.174 77.8333 165.321 78.4067 165.321 79.1V79.32C165.321 80.12 165.107 80.82 164.681 81.42C164.254 82.0067 163.641 82.4667 162.841 82.8C162.054 83.12 161.114 83.28 160.021 83.28ZM160.021 81.82C161.154 81.82 162.047 81.6 162.701 81.16C163.367 80.72 163.701 80.08 163.701 79.24V79.08C163.701 78.24 163.374 77.6 162.721 77.16C162.067 76.72 161.167 76.5 160.021 76.5C158.887 76.5 157.994 76.72 157.341 77.16C156.687 77.6 156.361 78.24 156.361 79.08V79.24C156.361 80.08 156.687 80.72 157.341 81.16C158.007 81.6 158.901 81.82 160.021 81.82ZM160.021 75.04C161.087 75.04 161.921 74.84 162.521 74.44C163.134 74.0267 163.441 73.4467 163.441 72.7V72.54C163.441 71.78 163.134 71.2 162.521 70.8C161.907 70.3867 161.074 70.18 160.021 70.18C158.967 70.18 158.134 70.3867 157.521 70.8C156.907 71.2 156.601 71.78 156.601 72.54V72.7C156.601 73.4467 156.907 74.0267 157.521 74.44C158.134 74.84 158.967 75.04 160.021 75.04ZM172.242 83.28C171.215 83.28 170.335 83.1 169.602 82.74C168.882 82.3667 168.335 81.86 167.962 81.22C167.588 80.58 167.402 79.8533 167.402 79.04H169.022C169.022 79.8667 169.295 80.54 169.842 81.06C170.388 81.5667 171.188 81.82 172.242 81.82C173.348 81.82 174.195 81.5267 174.782 80.94C175.382 80.34 175.682 79.52 175.682 78.48V76.54H175.422C175.168 76.94 174.762 77.3133 174.202 77.66C173.655 77.9933 172.882 78.16 171.882 78.16C171.042 78.16 170.268 77.9733 169.562 77.6C168.868 77.2267 168.315 76.7 167.902 76.02C167.488 75.34 167.282 74.5333 167.282 73.6V73.36C167.282 72.4 167.502 71.58 167.942 70.9C168.382 70.2067 168.975 69.6733 169.722 69.3C170.482 68.9133 171.342 68.72 172.302 68.72C173.275 68.72 174.135 68.9133 174.882 69.3C175.642 69.6733 176.235 70.2133 176.662 70.92C177.088 71.6133 177.302 72.4533 177.302 73.44V78.32C177.302 79.36 177.095 80.2533 176.682 81C176.282 81.7333 175.702 82.3 174.942 82.7C174.182 83.0867 173.282 83.28 172.242 83.28ZM172.302 76.8C172.968 76.8 173.555 76.6667 174.062 76.4C174.568 76.12 174.962 75.74 175.242 75.26C175.535 74.7667 175.682 74.1933 175.682 73.54V73.38C175.682 72.38 175.368 71.6 174.742 71.04C174.128 70.4667 173.315 70.18 172.302 70.18C171.288 70.18 170.468 70.4667 169.842 71.04C169.215 71.6 168.902 72.38 168.902 73.38V73.54C168.902 74.1933 169.042 74.7667 169.322 75.26C169.615 75.74 170.015 76.12 170.522 76.4C171.042 76.6667 171.635 76.8 172.302 76.8ZM184.728 83.28C183.648 83.28 182.708 83.12 181.908 82.8C181.121 82.4667 180.508 82.0067 180.068 81.42C179.641 80.82 179.428 80.12 179.428 79.32V79.1C179.428 78.4067 179.574 77.8333 179.868 77.38C180.161 76.9267 180.514 76.58 180.928 76.34C181.354 76.0867 181.748 75.9267 182.108 75.86V75.6C181.748 75.4933 181.374 75.32 180.988 75.08C180.614 74.84 180.301 74.5133 180.048 74.1C179.808 73.6867 179.688 73.18 179.688 72.58V72.36C179.688 71.6 179.901 70.9533 180.328 70.42C180.768 69.8733 181.368 69.4533 182.128 69.16C182.888 68.8667 183.754 68.72 184.728 68.72C185.714 68.72 186.581 68.8667 187.328 69.16C188.088 69.4533 188.681 69.8733 189.108 70.42C189.548 70.9533 189.768 71.6 189.768 72.36V72.58C189.768 73.18 189.648 73.6867 189.408 74.1C189.168 74.5133 188.861 74.84 188.488 75.08C188.114 75.32 187.741 75.4933 187.368 75.6V75.86C187.741 75.9267 188.134 76.0867 188.548 76.34C188.961 76.58 189.308 76.9267 189.588 77.38C189.881 77.8333 190.028 78.4067 190.028 79.1V79.32C190.028 80.12 189.814 80.82 189.388 81.42C188.961 82.0067 188.348 82.4667 187.548 82.8C186.761 83.12 185.821 83.28 184.728 83.28ZM184.728 81.82C185.861 81.82 186.754 81.6 187.408 81.16C188.074 80.72 188.408 80.08 188.408 79.24V79.08C188.408 78.24 188.081 77.6 187.428 77.16C186.774 76.72 185.874 76.5 184.728 76.5C183.594 76.5 182.701 76.72 182.048 77.16C181.394 77.6 181.068 78.24 181.068 79.08V79.24C181.068 80.08 181.394 80.72 182.048 81.16C182.714 81.6 183.608 81.82 184.728 81.82ZM184.728 75.04C185.794 75.04 186.628 74.84 187.228 74.44C187.841 74.0267 188.148 73.4467 188.148 72.7V72.54C188.148 71.78 187.841 71.2 187.228 70.8C186.614 70.3867 185.781 70.18 184.728 70.18C183.674 70.18 182.841 70.3867 182.228 70.8C181.614 71.2 181.308 71.78 181.308 72.54V72.7C181.308 73.4467 181.614 74.0267 182.228 74.44C182.841 74.84 183.674 75.04 184.728 75.04ZM193.794 83V82.5C193.794 82.0333 193.834 81.64 193.914 81.32C193.994 81 194.147 80.62 194.374 80.18L199.714 70.68V70.46H191.394V69H201.414V70.92L195.834 80.92C195.674 81.2 195.561 81.4533 195.494 81.68C195.441 81.9067 195.414 82.1933 195.414 82.54V83H193.794Z" fill="#DBDBDB"/>
<path d="M76.992 24.336C74.944 24.336 73.32 23.76 72.12 22.608C70.92 21.44 70.32 19.76 70.32 17.568V13.632C70.32 11.44 70.92 9.768 72.12 8.616C73.32 7.448 74.944 6.864 76.992 6.864C79.008 6.864 80.56 7.424 81.648 8.544C82.752 9.664 83.304 11.192 83.304 13.128V13.272H80.736V13.056C80.736 11.92 80.424 10.992 79.8 10.272C79.192 9.552 78.256 9.192 76.992 9.192C75.712 9.192 74.712 9.584 73.992 10.368C73.272 11.136 72.912 12.208 72.912 13.584V17.616C72.912 18.976 73.272 20.048 73.992 20.832C74.712 21.616 75.712 22.008 76.992 22.008C78.256 22.008 79.192 21.648 79.8 20.928C80.424 20.192 80.736 19.264 80.736 18.144V17.736H83.304V18.072C83.304 20.008 82.752 21.536 81.648 22.656C80.56 23.776 79.008 24.336 76.992 24.336ZM91.7899 24.336C90.6059 24.336 89.5499 24.096 88.6219 23.616C87.7099 23.12 86.9899 22.416 86.4619 21.504C85.9339 20.592 85.6699 19.512 85.6699 18.264V17.904C85.6699 16.656 85.9339 15.584 86.4619 14.688C86.9899 13.776 87.7099 13.072 88.6219 12.576C89.5499 12.08 90.6059 11.832 91.7899 11.832C92.9739 11.832 94.0299 12.08 94.9579 12.576C95.8859 13.072 96.6139 13.776 97.1419 14.688C97.6699 15.584 97.9339 16.656 97.9339 17.904V18.264C97.9339 19.512 97.6699 20.592 97.1419 21.504C96.6139 22.416 95.8859 23.12 94.9579 23.616C94.0299 24.096 92.9739 24.336 91.7899 24.336ZM91.7899 22.128C92.8779 22.128 93.7579 21.784 94.4299 21.096C95.1179 20.392 95.4619 19.424 95.4619 18.192V17.976C95.4619 16.744 95.1259 15.784 94.4539 15.096C93.7819 14.392 92.8939 14.04 91.7899 14.04C90.7179 14.04 89.8379 14.392 89.1499 15.096C88.4779 15.784 88.1419 16.744 88.1419 17.976V18.192C88.1419 19.424 88.4779 20.392 89.1499 21.096C89.8379 21.784 90.7179 22.128 91.7899 22.128ZM101.012 24V12.168H103.436V13.944H103.82C104.044 13.464 104.444 13.016 105.02 12.6C105.596 12.184 106.452 11.976 107.588 11.976C108.484 11.976 109.276 12.176 109.964 12.576C110.668 12.976 111.22 13.544 111.62 14.28C112.02 15 112.22 15.872 112.22 16.896V24H109.748V17.088C109.748 16.064 109.492 15.312 108.98 14.832C108.468 14.336 107.764 14.088 106.868 14.088C105.844 14.088 105.02 14.424 104.396 15.096C103.788 15.768 103.484 16.744 103.484 18.024V24H101.012ZM119.889 24C119.169 24 118.593 23.784 118.161 23.352C117.745 22.92 117.537 22.344 117.537 21.624V14.256H114.273V12.168H117.537V8.256H120.009V12.168H123.537V14.256H120.009V21.192C120.009 21.672 120.233 21.912 120.681 21.912H123.153V24H119.889ZM130.09 24.336C129.242 24.336 128.482 24.192 127.81 23.904C127.154 23.616 126.626 23.192 126.226 22.632C125.842 22.072 125.65 21.392 125.65 20.592C125.65 19.776 125.842 19.104 126.226 18.576C126.626 18.032 127.162 17.624 127.834 17.352C128.522 17.08 129.298 16.944 130.162 16.944H133.762V16.176C133.762 15.488 133.554 14.936 133.138 14.52C132.722 14.104 132.082 13.896 131.218 13.896C130.37 13.896 129.722 14.096 129.274 14.496C128.826 14.896 128.53 15.416 128.386 16.056L126.082 15.312C126.274 14.672 126.578 14.096 126.994 13.584C127.426 13.056 127.994 12.632 128.698 12.312C129.402 11.992 130.25 11.832 131.242 11.832C132.778 11.832 133.986 12.224 134.866 13.008C135.746 13.792 136.186 14.904 136.186 16.344V21.216C136.186 21.696 136.41 21.936 136.858 21.936H137.866V24H136.018C135.458 24 135.002 23.856 134.65 23.568C134.298 23.28 134.122 22.888 134.122 22.392V22.32H133.762C133.634 22.56 133.442 22.84 133.186 23.16C132.93 23.48 132.554 23.76 132.058 24C131.562 24.224 130.906 24.336 130.09 24.336ZM130.45 22.296C131.442 22.296 132.242 22.016 132.85 21.456C133.458 20.88 133.762 20.096 133.762 19.104V18.864H130.306C129.65 18.864 129.122 19.008 128.722 19.296C128.322 19.568 128.122 19.976 128.122 20.52C128.122 21.064 128.33 21.496 128.746 21.816C129.162 22.136 129.73 22.296 130.45 22.296ZM145.484 24.336C144.348 24.336 143.316 24.096 142.388 23.616C141.476 23.136 140.748 22.44 140.204 21.528C139.676 20.616 139.412 19.52 139.412 18.24V17.928C139.412 16.648 139.676 15.56 140.204 14.664C140.748 13.752 141.476 13.056 142.388 12.576C143.316 12.08 144.348 11.832 145.484 11.832C146.62 11.832 147.588 12.04 148.388 12.456C149.188 12.872 149.828 13.424 150.308 14.112C150.804 14.8 151.124 15.56 151.268 16.392L148.868 16.896C148.788 16.368 148.62 15.888 148.364 15.456C148.108 15.024 147.748 14.68 147.284 14.424C146.82 14.168 146.236 14.04 145.532 14.04C144.844 14.04 144.22 14.2 143.66 14.52C143.116 14.824 142.684 15.272 142.364 15.864C142.044 16.44 141.884 17.144 141.884 17.976V18.192C141.884 19.024 142.044 19.736 142.364 20.328C142.684 20.92 143.116 21.368 143.66 21.672C144.22 21.976 144.844 22.128 145.532 22.128C146.572 22.128 147.364 21.864 147.908 21.336C148.452 20.792 148.796 20.104 148.94 19.272L151.34 19.824C151.148 20.64 150.804 21.392 150.308 22.08C149.828 22.768 149.188 23.32 148.388 23.736C147.588 24.136 146.62 24.336 145.484 24.336ZM158.186 24C157.466 24 156.89 23.784 156.458 23.352C156.042 22.92 155.834 22.344 155.834 21.624V14.256H152.57V12.168H155.834V8.256H158.306V12.168H161.834V14.256H158.306V21.192C158.306 21.672 158.53 21.912 158.978 21.912H161.45V24H158.186Z" fill="#A0A0A0"/>
<path d="M33.44 121.2V117.72H30V116.28H33.44V112.8H34.96V116.28H38.4V117.72H34.96V121.2H33.44ZM46.4623 124.28C45.4757 124.28 44.589 124.093 43.8023 123.72C43.029 123.347 42.4157 122.807 41.9623 122.1C41.5223 121.393 41.3023 120.54 41.3023 119.54V119.16H42.9223V119.52C42.9223 120.547 43.249 121.353 43.9023 121.94C44.5557 122.527 45.409 122.82 46.4623 122.82C47.529 122.82 48.3557 122.547 48.9423 122C49.5423 121.44 49.8423 120.74 49.8423 119.9V119.74C49.8423 119.127 49.6957 118.633 49.4023 118.26C49.109 117.873 48.709 117.593 48.2023 117.42C47.709 117.233 47.1623 117.14 46.5623 117.14H44.2823V115.12L49.6223 111.7V111.46H41.6423V110H51.3423V112.26L46.1223 115.62V115.86H47.1223C47.909 115.86 48.629 116.007 49.2823 116.3C49.949 116.58 50.4757 117.007 50.8623 117.58C51.2623 118.14 51.4623 118.847 51.4623 119.7V119.92C51.4623 120.8 51.2557 121.567 50.8423 122.22C50.429 122.873 49.849 123.38 49.1023 123.74C48.3557 124.1 47.4757 124.28 46.4623 124.28ZM58.6927 124.28C57.6127 124.28 56.6727 124.12 55.8727 123.8C55.086 123.467 54.4727 123.007 54.0327 122.42C53.606 121.82 53.3927 121.12 53.3927 120.32V120.1C53.3927 119.407 53.5393 118.833 53.8327 118.38C54.126 117.927 54.4793 117.58 54.8927 117.34C55.3193 117.087 55.7127 116.927 56.0727 116.86V116.6C55.7127 116.493 55.3393 116.32 54.9527 116.08C54.5793 115.84 54.266 115.513 54.0127 115.1C53.7727 114.687 53.6527 114.18 53.6527 113.58V113.36C53.6527 112.6 53.866 111.953 54.2927 111.42C54.7327 110.873 55.3327 110.453 56.0927 110.16C56.8527 109.867 57.7193 109.72 58.6927 109.72C59.6793 109.72 60.546 109.867 61.2927 110.16C62.0527 110.453 62.646 110.873 63.0727 111.42C63.5127 111.953 63.7327 112.6 63.7327 113.36V113.58C63.7327 114.18 63.6127 114.687 63.3727 115.1C63.1327 115.513 62.826 115.84 62.4527 116.08C62.0793 116.32 61.706 116.493 61.3327 116.6V116.86C61.706 116.927 62.0993 117.087 62.5127 117.34C62.926 117.58 63.2727 117.927 63.5527 118.38C63.846 118.833 63.9927 119.407 63.9927 120.1V120.32C63.9927 121.12 63.7793 121.82 63.3527 122.42C62.926 123.007 62.3127 123.467 61.5127 123.8C60.726 124.12 59.786 124.28 58.6927 124.28ZM58.6927 122.82C59.826 122.82 60.7193 122.6 61.3727 122.16C62.0393 121.72 62.3727 121.08 62.3727 120.24V120.08C62.3727 119.24 62.046 118.6 61.3927 118.16C60.7393 117.72 59.8393 117.5 58.6927 117.5C57.5593 117.5 56.666 117.72 56.0127 118.16C55.3593 118.6 55.0327 119.24 55.0327 120.08V120.24C55.0327 121.08 55.3593 121.72 56.0127 122.16C56.6793 122.6 57.5727 122.82 58.6927 122.82ZM58.6927 116.04C59.7593 116.04 60.5927 115.84 61.1927 115.44C61.806 115.027 62.1127 114.447 62.1127 113.7V113.54C62.1127 112.78 61.806 112.2 61.1927 111.8C60.5793 111.387 59.746 111.18 58.6927 111.18C57.6393 111.18 56.806 111.387 56.1927 111.8C55.5793 112.2 55.2727 112.78 55.2727 113.54V113.7C55.2727 114.447 55.5793 115.027 56.1927 115.44C56.806 115.84 57.6393 116.04 58.6927 116.04ZM71.3336 124.28C69.7469 124.28 68.4803 123.813 67.5336 122.88C66.6003 121.933 66.1336 120.52 66.1336 118.64V115.36C66.1336 113.493 66.6003 112.087 67.5336 111.14C68.4803 110.193 69.7469 109.72 71.3336 109.72C72.9336 109.72 74.2003 110.193 75.1336 111.14C76.0803 112.087 76.5536 113.493 76.5536 115.36V118.64C76.5536 120.52 76.0803 121.933 75.1336 122.88C74.2003 123.813 72.9336 124.28 71.3336 124.28ZM71.3336 122.82C72.5336 122.82 73.4336 122.46 74.0336 121.74C74.6336 121.02 74.9336 120.013 74.9336 118.72V115.26C74.9336 113.967 74.6269 112.967 74.0136 112.26C73.4003 111.54 72.5069 111.18 71.3336 111.18C70.1603 111.18 69.2669 111.54 68.6536 112.26C68.0536 112.98 67.7536 113.98 67.7536 115.26V118.72C67.7536 120.027 68.0536 121.04 68.6536 121.76C69.2536 122.467 70.1469 122.82 71.3336 122.82ZM88.8628 124.28C87.8361 124.28 86.9561 124.1 86.2228 123.74C85.5028 123.367 84.9561 122.86 84.5828 122.22C84.2095 121.58 84.0228 120.853 84.0228 120.04H85.6428C85.6428 120.867 85.9161 121.54 86.4628 122.06C87.0095 122.567 87.8095 122.82 88.8628 122.82C89.9695 122.82 90.8161 122.527 91.4028 121.94C92.0028 121.34 92.3028 120.52 92.3028 119.48V117.54H92.0428C91.7895 117.94 91.3828 118.313 90.8228 118.66C90.2761 118.993 89.5028 119.16 88.5028 119.16C87.6628 119.16 86.8895 118.973 86.1828 118.6C85.4895 118.227 84.9361 117.7 84.5228 117.02C84.1095 116.34 83.9028 115.533 83.9028 114.6V114.36C83.9028 113.4 84.1228 112.58 84.5628 111.9C85.0028 111.207 85.5961 110.673 86.3428 110.3C87.1028 109.913 87.9628 109.72 88.9228 109.72C89.8961 109.72 90.7561 109.913 91.5028 110.3C92.2628 110.673 92.8561 111.213 93.2828 111.92C93.7095 112.613 93.9228 113.453 93.9228 114.44V119.32C93.9228 120.36 93.7161 121.253 93.3028 122C92.9028 122.733 92.3228 123.3 91.5628 123.7C90.8028 124.087 89.9028 124.28 88.8628 124.28ZM88.9228 117.8C89.5895 117.8 90.1761 117.667 90.6828 117.4C91.1895 117.12 91.5828 116.74 91.8628 116.26C92.1561 115.767 92.3028 115.193 92.3028 114.54V114.38C92.3028 113.38 91.9895 112.6 91.3628 112.04C90.7495 111.467 89.9361 111.18 88.9228 111.18C87.9095 111.18 87.0895 111.467 86.4628 112.04C85.8361 112.6 85.5228 113.38 85.5228 114.38V114.54C85.5228 115.193 85.6628 115.767 85.9428 116.26C86.2361 116.74 86.6361 117.12 87.1428 117.4C87.6628 117.667 88.2561 117.8 88.9228 117.8ZM97.7978 124V123.5C97.7978 123.033 97.8378 122.64 97.9178 122.32C97.9978 122 98.1511 121.62 98.3778 121.18L103.718 111.68V111.46H95.3978V110H105.418V111.92L99.8378 121.92C99.6778 122.2 99.5645 122.453 99.4978 122.68C99.4445 122.907 99.4178 123.193 99.4178 123.54V124H97.7978ZM117.244 124.28C116.257 124.28 115.37 124.093 114.584 123.72C113.81 123.347 113.197 122.807 112.744 122.1C112.304 121.393 112.084 120.54 112.084 119.54V119.16H113.704V119.52C113.704 120.547 114.03 121.353 114.684 121.94C115.337 122.527 116.19 122.82 117.244 122.82C118.31 122.82 119.137 122.547 119.724 122C120.324 121.44 120.624 120.74 120.624 119.9V119.74C120.624 119.127 120.477 118.633 120.184 118.26C119.89 117.873 119.49 117.593 118.984 117.42C118.49 117.233 117.944 117.14 117.344 117.14H115.064V115.12L120.404 111.7V111.46H112.424V110H122.124V112.26L116.904 115.62V115.86H117.904C118.69 115.86 119.41 116.007 120.064 116.3C120.73 116.58 121.257 117.007 121.644 117.58C122.044 118.14 122.244 118.847 122.244 119.7V119.92C122.244 120.8 122.037 121.567 121.624 122.22C121.21 122.873 120.63 123.38 119.884 123.74C119.137 124.1 118.257 124.28 117.244 124.28ZM129.314 124.28C128.327 124.28 127.441 124.093 126.654 123.72C125.881 123.347 125.267 122.807 124.814 122.1C124.374 121.393 124.154 120.54 124.154 119.54V119.16H125.774V119.52C125.774 120.547 126.101 121.353 126.754 121.94C127.407 122.527 128.261 122.82 129.314 122.82C130.381 122.82 131.207 122.547 131.794 122C132.394 121.44 132.694 120.74 132.694 119.9V119.74C132.694 119.127 132.547 118.633 132.254 118.26C131.961 117.873 131.561 117.593 131.054 117.42C130.561 117.233 130.014 117.14 129.414 117.14H127.134V115.12L132.474 111.7V111.46H124.494V110H134.194V112.26L128.974 115.62V115.86H129.974C130.761 115.86 131.481 116.007 132.134 116.3C132.801 116.58 133.327 117.007 133.714 117.58C134.114 118.14 134.314 118.847 134.314 119.7V119.92C134.314 120.8 134.107 121.567 133.694 122.22C133.281 122.873 132.701 123.38 131.954 123.74C131.207 124.1 130.327 124.28 129.314 124.28ZM141.384 124.28C140.398 124.28 139.511 124.093 138.724 123.72C137.951 123.347 137.338 122.807 136.884 122.1C136.444 121.393 136.224 120.54 136.224 119.54V119.16H137.844V119.52C137.844 120.547 138.171 121.353 138.824 121.94C139.478 122.527 140.331 122.82 141.384 122.82C142.451 122.82 143.278 122.547 143.864 122C144.464 121.44 144.764 120.74 144.764 119.9V119.74C144.764 119.127 144.618 118.633 144.324 118.26C144.031 117.873 143.631 117.593 143.124 117.42C142.631 117.233 142.084 117.14 141.484 117.14H139.204V115.12L144.544 111.7V111.46H136.564V110H146.264V112.26L141.044 115.62V115.86H142.044C142.831 115.86 143.551 116.007 144.204 116.3C144.871 116.58 145.398 117.007 145.784 117.58C146.184 118.14 146.384 118.847 146.384 119.7V119.92C146.384 120.8 146.178 121.567 145.764 122.22C145.351 122.873 144.771 123.38 144.024 123.74C143.278 124.1 142.398 124.28 141.384 124.28ZM158.731 124.28C157.771 124.28 156.911 124.093 156.151 123.72C155.405 123.333 154.811 122.787 154.371 122.08C153.945 121.373 153.731 120.533 153.731 119.56V114.68C153.731 113.627 153.938 112.733 154.351 112C154.765 111.267 155.345 110.707 156.091 110.32C156.851 109.92 157.751 109.72 158.791 109.72C159.818 109.72 160.691 109.907 161.411 110.28C162.145 110.64 162.698 111.14 163.071 111.78C163.458 112.407 163.651 113.133 163.651 113.96H162.011C162.011 113.133 161.745 112.467 161.211 111.96C160.678 111.44 159.871 111.18 158.791 111.18C157.698 111.18 156.851 111.48 156.251 112.08C155.651 112.667 155.351 113.48 155.351 114.52V116.46H155.631C155.871 116.06 156.271 115.693 156.831 115.36C157.391 115.013 158.171 114.84 159.171 114.84C160.011 114.84 160.778 115.027 161.471 115.4C162.165 115.773 162.718 116.3 163.131 116.98C163.545 117.66 163.751 118.467 163.751 119.4V119.64C163.751 120.587 163.531 121.407 163.091 122.1C162.665 122.793 162.071 123.333 161.311 123.72C160.551 124.093 159.691 124.28 158.731 124.28ZM158.731 122.82C159.745 122.82 160.565 122.533 161.191 121.96C161.818 121.387 162.131 120.607 162.131 119.62V119.46C162.131 118.793 161.985 118.22 161.691 117.74C161.411 117.26 161.018 116.887 160.511 116.62C160.005 116.34 159.411 116.2 158.731 116.2C158.065 116.2 157.478 116.34 156.971 116.62C156.465 116.887 156.065 117.26 155.771 117.74C155.491 118.22 155.351 118.793 155.351 119.46V119.62C155.351 120.607 155.665 121.387 156.291 121.96C156.918 122.533 157.731 122.82 158.731 122.82ZM170.977 124.28C170.017 124.28 169.157 124.093 168.397 123.72C167.651 123.333 167.057 122.787 166.617 122.08C166.191 121.373 165.977 120.533 165.977 119.56V114.68C165.977 113.627 166.184 112.733 166.597 112C167.011 111.267 167.591 110.707 168.337 110.32C169.097 109.92 169.997 109.72 171.037 109.72C172.064 109.72 172.937 109.907 173.657 110.28C174.391 110.64 174.944 111.14 175.317 111.78C175.704 112.407 175.897 113.133 175.897 113.96H174.257C174.257 113.133 173.991 112.467 173.457 111.96C172.924 111.44 172.117 111.18 171.037 111.18C169.944 111.18 169.097 111.48 168.497 112.08C167.897 112.667 167.597 113.48 167.597 114.52V116.46H167.877C168.117 116.06 168.517 115.693 169.077 115.36C169.637 115.013 170.417 114.84 171.417 114.84C172.257 114.84 173.024 115.027 173.717 115.4C174.411 115.773 174.964 116.3 175.377 116.98C175.791 117.66 175.997 118.467 175.997 119.4V119.64C175.997 120.587 175.777 121.407 175.337 122.1C174.911 122.793 174.317 123.333 173.557 123.72C172.797 124.093 171.937 124.28 170.977 124.28ZM170.977 122.82C171.991 122.82 172.811 122.533 173.437 121.96C174.064 121.387 174.377 120.607 174.377 119.62V119.46C174.377 118.793 174.231 118.22 173.937 117.74C173.657 117.26 173.264 116.887 172.757 116.62C172.251 116.34 171.657 116.2 170.977 116.2C170.311 116.2 169.724 116.34 169.217 116.62C168.711 116.887 168.311 117.26 168.017 117.74C167.737 118.22 167.597 118.793 167.597 119.46V119.62C167.597 120.607 167.911 121.387 168.537 121.96C169.164 122.533 169.977 122.82 170.977 122.82ZM183.223 124.28C182.263 124.28 181.403 124.093 180.643 123.72C179.897 123.333 179.303 122.787 178.863 122.08C178.437 121.373 178.223 120.533 178.223 119.56V114.68C178.223 113.627 178.43 112.733 178.843 112C179.257 111.267 179.837 110.707 180.583 110.32C181.343 109.92 182.243 109.72 183.283 109.72C184.31 109.72 185.183 109.907 185.903 110.28C186.637 110.64 187.19 111.14 187.563 111.78C187.95 112.407 188.143 113.133 188.143 113.96H186.503C186.503 113.133 186.237 112.467 185.703 111.96C185.17 111.44 184.363 111.18 183.283 111.18C182.19 111.18 181.343 111.48 180.743 112.08C180.143 112.667 179.843 113.48 179.843 114.52V116.46H180.123C180.363 116.06 180.763 115.693 181.323 115.36C181.883 115.013 182.663 114.84 183.663 114.84C184.503 114.84 185.27 115.027 185.963 115.4C186.657 115.773 187.21 116.3 187.623 116.98C188.037 117.66 188.243 118.467 188.243 119.4V119.64C188.243 120.587 188.023 121.407 187.583 122.1C187.157 122.793 186.563 123.333 185.803 123.72C185.043 124.093 184.183 124.28 183.223 124.28ZM183.223 122.82C184.237 122.82 185.057 122.533 185.683 121.96C186.31 121.387 186.623 120.607 186.623 119.62V119.46C186.623 118.793 186.477 118.22 186.183 117.74C185.903 117.26 185.51 116.887 185.003 116.62C184.497 116.34 183.903 116.2 183.223 116.2C182.557 116.2 181.97 116.34 181.463 116.62C180.957 116.887 180.557 117.26 180.263 117.74C179.983 118.22 179.843 118.793 179.843 119.46V119.62C179.843 120.607 180.157 121.387 180.783 121.96C181.41 122.533 182.223 122.82 183.223 122.82ZM195.47 124.28C194.51 124.28 193.65 124.093 192.89 123.72C192.143 123.333 191.55 122.787 191.11 122.08C190.683 121.373 190.47 120.533 190.47 119.56V114.68C190.47 113.627 190.676 112.733 191.09 112C191.503 111.267 192.083 110.707 192.83 110.32C193.59 109.92 194.49 109.72 195.53 109.72C196.556 109.72 197.43 109.907 198.15 110.28C198.883 110.64 199.436 111.14 199.81 111.78C200.196 112.407 200.39 113.133 200.39 113.96H198.75C198.75 113.133 198.483 112.467 197.95 111.96C197.416 111.44 196.61 111.18 195.53 111.18C194.436 111.18 193.59 111.48 192.99 112.08C192.39 112.667 192.09 113.48 192.09 114.52V116.46H192.37C192.61 116.06 193.01 115.693 193.57 115.36C194.13 115.013 194.91 114.84 195.91 114.84C196.75 114.84 197.516 115.027 198.21 115.4C198.903 115.773 199.456 116.3 199.87 116.98C200.283 117.66 200.49 118.467 200.49 119.4V119.64C200.49 120.587 200.27 121.407 199.83 122.1C199.403 122.793 198.81 123.333 198.05 123.72C197.29 124.093 196.43 124.28 195.47 124.28ZM195.47 122.82C196.483 122.82 197.303 122.533 197.93 121.96C198.556 121.387 198.87 120.607 198.87 119.62V119.46C198.87 118.793 198.723 118.22 198.43 117.74C198.15 117.26 197.756 116.887 197.25 116.62C196.743 116.34 196.15 116.2 195.47 116.2C194.803 116.2 194.216 116.34 193.71 116.62C193.203 116.887 192.803 117.26 192.51 117.74C192.23 118.22 192.09 118.793 192.09 119.46V119.62C192.09 120.607 192.403 121.387 193.03 121.96C193.656 122.533 194.47 122.82 195.47 122.82Z" fill="#DBDBDB"/>
<path d="M33.44 162.2V158.72H30V157.28H33.44V153.8H34.96V157.28H38.4V158.72H34.96V162.2H33.44ZM46.4623 165.28C45.4757 165.28 44.589 165.093 43.8023 164.72C43.029 164.347 42.4157 163.807 41.9623 163.1C41.5223 162.393 41.3023 161.54 41.3023 160.54V160.16H42.9223V160.52C42.9223 161.547 43.249 162.353 43.9023 162.94C44.5557 163.527 45.409 163.82 46.4623 163.82C47.529 163.82 48.3557 163.547 48.9423 163C49.5423 162.44 49.8423 161.74 49.8423 160.9V160.74C49.8423 160.127 49.6957 159.633 49.4023 159.26C49.109 158.873 48.709 158.593 48.2023 158.42C47.709 158.233 47.1623 158.14 46.5623 158.14H44.2823V156.12L49.6223 152.7V152.46H41.6423V151H51.3423V153.26L46.1223 156.62V156.86H47.1223C47.909 156.86 48.629 157.007 49.2823 157.3C49.949 157.58 50.4757 158.007 50.8623 158.58C51.2623 159.14 51.4623 159.847 51.4623 160.7V160.92C51.4623 161.8 51.2557 162.567 50.8423 163.22C50.429 163.873 49.849 164.38 49.1023 164.74C48.3557 165.1 47.4757 165.28 46.4623 165.28ZM58.6927 165.28C57.6127 165.28 56.6727 165.12 55.8727 164.8C55.086 164.467 54.4727 164.007 54.0327 163.42C53.606 162.82 53.3927 162.12 53.3927 161.32V161.1C53.3927 160.407 53.5393 159.833 53.8327 159.38C54.126 158.927 54.4793 158.58 54.8927 158.34C55.3193 158.087 55.7127 157.927 56.0727 157.86V157.6C55.7127 157.493 55.3393 157.32 54.9527 157.08C54.5793 156.84 54.266 156.513 54.0127 156.1C53.7727 155.687 53.6527 155.18 53.6527 154.58V154.36C53.6527 153.6 53.866 152.953 54.2927 152.42C54.7327 151.873 55.3327 151.453 56.0927 151.16C56.8527 150.867 57.7193 150.72 58.6927 150.72C59.6793 150.72 60.546 150.867 61.2927 151.16C62.0527 151.453 62.646 151.873 63.0727 152.42C63.5127 152.953 63.7327 153.6 63.7327 154.36V154.58C63.7327 155.18 63.6127 155.687 63.3727 156.1C63.1327 156.513 62.826 156.84 62.4527 157.08C62.0793 157.32 61.706 157.493 61.3327 157.6V157.86C61.706 157.927 62.0993 158.087 62.5127 158.34C62.926 158.58 63.2727 158.927 63.5527 159.38C63.846 159.833 63.9927 160.407 63.9927 161.1V161.32C63.9927 162.12 63.7793 162.82 63.3527 163.42C62.926 164.007 62.3127 164.467 61.5127 164.8C60.726 165.12 59.786 165.28 58.6927 165.28ZM58.6927 163.82C59.826 163.82 60.7193 163.6 61.3727 163.16C62.0393 162.72 62.3727 162.08 62.3727 161.24V161.08C62.3727 160.24 62.046 159.6 61.3927 159.16C60.7393 158.72 59.8393 158.5 58.6927 158.5C57.5593 158.5 56.666 158.72 56.0127 159.16C55.3593 159.6 55.0327 160.24 55.0327 161.08V161.24C55.0327 162.08 55.3593 162.72 56.0127 163.16C56.6793 163.6 57.5727 163.82 58.6927 163.82ZM58.6927 157.04C59.7593 157.04 60.5927 156.84 61.1927 156.44C61.806 156.027 62.1127 155.447 62.1127 154.7V154.54C62.1127 153.78 61.806 153.2 61.1927 152.8C60.5793 152.387 59.746 152.18 58.6927 152.18C57.6393 152.18 56.806 152.387 56.1927 152.8C55.5793 153.2 55.2727 153.78 55.2727 154.54V154.7C55.2727 155.447 55.5793 156.027 56.1927 156.44C56.806 156.84 57.6393 157.04 58.6927 157.04ZM71.3336 165.28C69.7469 165.28 68.4803 164.813 67.5336 163.88C66.6003 162.933 66.1336 161.52 66.1336 159.64V156.36C66.1336 154.493 66.6003 153.087 67.5336 152.14C68.4803 151.193 69.7469 150.72 71.3336 150.72C72.9336 150.72 74.2003 151.193 75.1336 152.14C76.0803 153.087 76.5536 154.493 76.5536 156.36V159.64C76.5536 161.52 76.0803 162.933 75.1336 163.88C74.2003 164.813 72.9336 165.28 71.3336 165.28ZM71.3336 163.82C72.5336 163.82 73.4336 163.46 74.0336 162.74C74.6336 162.02 74.9336 161.013 74.9336 159.72V156.26C74.9336 154.967 74.6269 153.967 74.0136 153.26C73.4003 152.54 72.5069 152.18 71.3336 152.18C70.1603 152.18 69.2669 152.54 68.6536 153.26C68.0536 153.98 67.7536 154.98 67.7536 156.26V159.72C67.7536 161.027 68.0536 162.04 68.6536 162.76C69.2536 163.467 70.1469 163.82 71.3336 163.82ZM88.8628 165.28C87.8361 165.28 86.9561 165.1 86.2228 164.74C85.5028 164.367 84.9561 163.86 84.5828 163.22C84.2095 162.58 84.0228 161.853 84.0228 161.04H85.6428C85.6428 161.867 85.9161 162.54 86.4628 163.06C87.0095 163.567 87.8095 163.82 88.8628 163.82C89.9695 163.82 90.8161 163.527 91.4028 162.94C92.0028 162.34 92.3028 161.52 92.3028 160.48V158.54H92.0428C91.7895 158.94 91.3828 159.313 90.8228 159.66C90.2761 159.993 89.5028 160.16 88.5028 160.16C87.6628 160.16 86.8895 159.973 86.1828 159.6C85.4895 159.227 84.9361 158.7 84.5228 158.02C84.1095 157.34 83.9028 156.533 83.9028 155.6V155.36C83.9028 154.4 84.1228 153.58 84.5628 152.9C85.0028 152.207 85.5961 151.673 86.3428 151.3C87.1028 150.913 87.9628 150.72 88.9228 150.72C89.8961 150.72 90.7561 150.913 91.5028 151.3C92.2628 151.673 92.8561 152.213 93.2828 152.92C93.7095 153.613 93.9228 154.453 93.9228 155.44V160.32C93.9228 161.36 93.7161 162.253 93.3028 163C92.9028 163.733 92.3228 164.3 91.5628 164.7C90.8028 165.087 89.9028 165.28 88.8628 165.28ZM88.9228 158.8C89.5895 158.8 90.1761 158.667 90.6828 158.4C91.1895 158.12 91.5828 157.74 91.8628 157.26C92.1561 156.767 92.3028 156.193 92.3028 155.54V155.38C92.3028 154.38 91.9895 153.6 91.3628 153.04C90.7495 152.467 89.9361 152.18 88.9228 152.18C87.9095 152.18 87.0895 152.467 86.4628 153.04C85.8361 153.6 85.5228 154.38 85.5228 155.38V155.54C85.5228 156.193 85.6628 156.767 85.9428 157.26C86.2361 157.74 86.6361 158.12 87.1428 158.4C87.6628 158.667 88.2561 158.8 88.9228 158.8ZM101.349 165.28C100.269 165.28 99.3289 165.12 98.5289 164.8C97.7422 164.467 97.1289 164.007 96.6889 163.42C96.2622 162.82 96.0489 162.12 96.0489 161.32V161.1C96.0489 160.407 96.1956 159.833 96.4889 159.38C96.7822 158.927 97.1356 158.58 97.5489 158.34C97.9756 158.087 98.3689 157.927 98.7289 157.86V157.6C98.3689 157.493 97.9956 157.32 97.6089 157.08C97.2356 156.84 96.9222 156.513 96.6689 156.1C96.4289 155.687 96.3089 155.18 96.3089 154.58V154.36C96.3089 153.6 96.5222 152.953 96.9489 152.42C97.3889 151.873 97.9889 151.453 98.7489 151.16C99.5089 150.867 100.376 150.72 101.349 150.72C102.336 150.72 103.202 150.867 103.949 151.16C104.709 151.453 105.302 151.873 105.729 152.42C106.169 152.953 106.389 153.6 106.389 154.36V154.58C106.389 155.18 106.269 155.687 106.029 156.1C105.789 156.513 105.482 156.84 105.109 157.08C104.736 157.32 104.362 157.493 103.989 157.6V157.86C104.362 157.927 104.756 158.087 105.169 158.34C105.582 158.58 105.929 158.927 106.209 159.38C106.502 159.833 106.649 160.407 106.649 161.1V161.32C106.649 162.12 106.436 162.82 106.009 163.42C105.582 164.007 104.969 164.467 104.169 164.8C103.382 165.12 102.442 165.28 101.349 165.28ZM101.349 163.82C102.482 163.82 103.376 163.6 104.029 163.16C104.696 162.72 105.029 162.08 105.029 161.24V161.08C105.029 160.24 104.702 159.6 104.049 159.16C103.396 158.72 102.496 158.5 101.349 158.5C100.216 158.5 99.3222 158.72 98.6689 159.16C98.0156 159.6 97.6889 160.24 97.6889 161.08V161.24C97.6889 162.08 98.0156 162.72 98.6689 163.16C99.3356 163.6 100.229 163.82 101.349 163.82ZM101.349 157.04C102.416 157.04 103.249 156.84 103.849 156.44C104.462 156.027 104.769 155.447 104.769 154.7V154.54C104.769 153.78 104.462 153.2 103.849 152.8C103.236 152.387 102.402 152.18 101.349 152.18C100.296 152.18 99.4622 152.387 98.8489 152.8C98.2356 153.2 97.9289 153.78 97.9289 154.54V154.7C97.9289 155.447 98.2356 156.027 98.8489 156.44C99.4622 156.84 100.296 157.04 101.349 157.04ZM120.667 165V162.14H113.367V160.22L119.247 151H122.287V160.68H124.687V162.14H122.287V165H120.667ZM114.987 160.68H120.667V151.98H120.387L114.987 160.44V160.68ZM133.167 165V162.14H125.867V160.22L131.747 151H134.787V160.68H137.187V162.14H134.787V165H133.167ZM127.487 160.68H133.167V151.98H132.887L127.487 160.44V160.68ZM145.667 165V162.14H138.367V160.22L144.247 151H147.287V160.68H149.687V162.14H147.287V165H145.667ZM139.987 160.68H145.667V151.98H145.387L139.987 160.44V160.68ZM161.403 165.28C160.377 165.28 159.49 165.087 158.743 164.7C157.997 164.3 157.417 163.753 157.003 163.06C156.59 162.353 156.383 161.54 156.383 160.62V160.38H158.003V160.56C158.003 161.613 158.31 162.42 158.923 162.98C159.537 163.54 160.35 163.82 161.363 163.82C162.43 163.82 163.263 163.52 163.863 162.92C164.463 162.32 164.763 161.5 164.763 160.46V160.28C164.763 159.28 164.47 158.487 163.883 157.9C163.31 157.3 162.563 157 161.643 157C161.11 157 160.67 157.087 160.323 157.26C159.977 157.42 159.703 157.627 159.503 157.88C159.303 158.12 159.137 158.353 159.003 158.58H156.803V151H166.003V152.46H158.423V157.3H158.703C158.85 157.033 159.05 156.773 159.303 156.52C159.57 156.267 159.923 156.053 160.363 155.88C160.803 155.707 161.35 155.62 162.003 155.62C162.817 155.62 163.55 155.807 164.203 156.18C164.87 156.553 165.397 157.087 165.783 157.78C166.183 158.473 166.383 159.3 166.383 160.26V160.48C166.383 161.427 166.183 162.26 165.783 162.98C165.383 163.7 164.81 164.267 164.063 164.68C163.317 165.08 162.43 165.28 161.403 165.28ZM173.376 165.28C172.349 165.28 171.463 165.087 170.716 164.7C169.969 164.3 169.389 163.753 168.976 163.06C168.563 162.353 168.356 161.54 168.356 160.62V160.38H169.976V160.56C169.976 161.613 170.283 162.42 170.896 162.98C171.509 163.54 172.323 163.82 173.336 163.82C174.403 163.82 175.236 163.52 175.836 162.92C176.436 162.32 176.736 161.5 176.736 160.46V160.28C176.736 159.28 176.443 158.487 175.856 157.9C175.283 157.3 174.536 157 173.616 157C173.083 157 172.643 157.087 172.296 157.26C171.949 157.42 171.676 157.627 171.476 157.88C171.276 158.12 171.109 158.353 170.976 158.58H168.776V151H177.976V152.46H170.396V157.3H170.676C170.823 157.033 171.023 156.773 171.276 156.52C171.543 156.267 171.896 156.053 172.336 155.88C172.776 155.707 173.323 155.62 173.976 155.62C174.789 155.62 175.523 155.807 176.176 156.18C176.843 156.553 177.369 157.087 177.756 157.78C178.156 158.473 178.356 159.3 178.356 160.26V160.48C178.356 161.427 178.156 162.26 177.756 162.98C177.356 163.7 176.783 164.267 176.036 164.68C175.289 165.08 174.403 165.28 173.376 165.28ZM185.349 165.28C184.322 165.28 183.435 165.087 182.689 164.7C181.942 164.3 181.362 163.753 180.949 163.06C180.535 162.353 180.329 161.54 180.329 160.62V160.38H181.949V160.56C181.949 161.613 182.255 162.42 182.869 162.98C183.482 163.54 184.295 163.82 185.309 163.82C186.375 163.82 187.209 163.52 187.809 162.92C188.409 162.32 188.709 161.5 188.709 160.46V160.28C188.709 159.28 188.415 158.487 187.829 157.9C187.255 157.3 186.509 157 185.589 157C185.055 157 184.615 157.087 184.269 157.26C183.922 157.42 183.649 157.627 183.449 157.88C183.249 158.12 183.082 158.353 182.949 158.58H180.749V151H189.949V152.46H182.369V157.3H182.649C182.795 157.033 182.995 156.773 183.249 156.52C183.515 156.267 183.869 156.053 184.309 155.88C184.749 155.707 185.295 155.62 185.949 155.62C186.762 155.62 187.495 155.807 188.149 156.18C188.815 156.553 189.342 157.087 189.729 157.78C190.129 158.473 190.329 159.3 190.329 160.26V160.48C190.329 161.427 190.129 162.26 189.729 162.98C189.329 163.7 188.755 164.267 188.009 164.68C187.262 165.08 186.375 165.28 185.349 165.28ZM197.321 165.28C196.295 165.28 195.408 165.087 194.661 164.7C193.915 164.3 193.335 163.753 192.921 163.06C192.508 162.353 192.301 161.54 192.301 160.62V160.38H193.921V160.56C193.921 161.613 194.228 162.42 194.841 162.98C195.455 163.54 196.268 163.82 197.281 163.82C198.348 163.82 199.181 163.52 199.781 162.92C200.381 162.32 200.681 161.5 200.681 160.46V160.28C200.681 159.28 200.388 158.487 199.801 157.9C199.228 157.3 198.481 157 197.561 157C197.028 157 196.588 157.087 196.241 157.26C195.895 157.42 195.621 157.627 195.421 157.88C195.221 158.12 195.055 158.353 194.921 158.58H192.721V151H201.921V152.46H194.341V157.3H194.621C194.768 157.033 194.968 156.773 195.221 156.52C195.488 156.267 195.841 156.053 196.281 155.88C196.721 155.707 197.268 155.62 197.921 155.62C198.735 155.62 199.468 155.807 200.121 156.18C200.788 156.553 201.315 157.087 201.701 157.78C202.101 158.473 202.301 159.3 202.301 160.26V160.48C202.301 161.427 202.101 162.26 201.701 162.98C201.301 163.7 200.728 164.267 199.981 164.68C199.235 165.08 198.348 165.28 197.321 165.28Z" fill="#DBDBDB"/>
<path d="M1.6 215V201H3.28V215H1.6ZM6.54281 215V205.22H8.08281V206.88H8.36281C8.57615 206.413 8.93615 205.993 9.44281 205.62C9.96281 205.233 10.7228 205.04 11.7228 205.04C12.4561 205.04 13.1095 205.193 13.6828 205.5C14.2695 205.807 14.7361 206.26 15.0828 206.86C15.4295 207.46 15.6028 208.2 15.6028 209.08V215H14.0228V209.2C14.0228 208.227 13.7761 207.52 13.2828 207.08C12.8028 206.64 12.1495 206.42 11.3228 206.42C10.3761 206.42 9.60281 206.727 9.00281 207.34C8.41615 207.953 8.12281 208.867 8.12281 210.08V215H6.54281ZM18.8084 215V205.22H20.3484V206.88H20.6284C20.8418 206.413 21.2018 205.993 21.7084 205.62C22.2284 205.233 22.9884 205.04 23.9884 205.04C24.7218 205.04 25.3751 205.193 25.9484 205.5C26.5351 205.807 27.0018 206.26 27.3484 206.86C27.6951 207.46 27.8684 208.2 27.8684 209.08V215H26.2884V209.2C26.2884 208.227 26.0418 207.52 25.5484 207.08C25.0684 206.64 24.4151 206.42 23.5884 206.42C22.6418 206.42 21.8684 206.727 21.2684 207.34C20.6818 207.953 20.3884 208.867 20.3884 210.08V215H18.8084ZM35.5941 215.28C34.6074 215.28 33.7341 215.073 32.9741 214.66C32.2274 214.247 31.6407 213.667 31.2141 212.92C30.8007 212.16 30.5941 211.267 30.5941 210.24V209.98C30.5941 208.967 30.8007 208.08 31.2141 207.32C31.6407 206.56 32.2274 205.973 32.9741 205.56C33.7341 205.147 34.6074 204.94 35.5941 204.94C36.5807 204.94 37.4474 205.147 38.1941 205.56C38.9541 205.973 39.5407 206.56 39.9541 207.32C40.3807 208.08 40.5941 208.967 40.5941 209.98V210.24C40.5941 211.267 40.3807 212.16 39.9541 212.92C39.5407 213.667 38.9541 214.247 38.1941 214.66C37.4474 215.073 36.5807 215.28 35.5941 215.28ZM35.5941 213.86C36.6341 213.86 37.4607 213.533 38.0741 212.88C38.7007 212.213 39.0141 211.32 39.0141 210.2V210.02C39.0141 208.9 38.7007 208.013 38.0741 207.36C37.4607 206.693 36.6341 206.36 35.5941 206.36C34.5674 206.36 33.7407 206.693 33.1141 207.36C32.4874 208.013 32.1741 208.9 32.1741 210.02V210.2C32.1741 211.32 32.4874 212.213 33.1141 212.88C33.7407 213.533 34.5674 213.86 35.5941 213.86ZM43.3773 215V201H45.0573V213.48H52.1373V215H43.3773ZM57.3553 215.28C56.6753 215.28 56.0553 215.16 55.4953 214.92C54.9353 214.68 54.4953 214.333 54.1753 213.88C53.8553 213.427 53.6953 212.873 53.6953 212.22C53.6953 211.553 53.8553 211.007 54.1753 210.58C54.4953 210.14 54.9353 209.813 55.4953 209.6C56.0553 209.373 56.682 209.26 57.3753 209.26H60.6753V208.54C60.6753 207.847 60.4686 207.3 60.0553 206.9C59.6553 206.5 59.0553 206.3 58.2553 206.3C57.4686 206.3 56.8553 206.493 56.4153 206.88C55.9753 207.253 55.6753 207.76 55.5153 208.4L54.0353 207.92C54.1953 207.373 54.4486 206.88 54.7953 206.44C55.142 205.987 55.602 205.627 56.1753 205.36C56.762 205.08 57.462 204.94 58.2753 204.94C59.5286 204.94 60.502 205.267 61.1953 205.92C61.8886 206.56 62.2353 207.467 62.2353 208.64V213.06C62.2353 213.46 62.422 213.66 62.7953 213.66H63.6953V215H62.3153C61.8753 215 61.522 214.88 61.2553 214.64C60.9886 214.387 60.8553 214.053 60.8553 213.64V213.54H60.6153C60.4686 213.793 60.2686 214.06 60.0153 214.34C59.7753 214.607 59.442 214.827 59.0153 215C58.5886 215.187 58.0353 215.28 57.3553 215.28ZM57.5353 213.92C58.4686 213.92 59.222 213.647 59.7953 213.1C60.382 212.54 60.6753 211.76 60.6753 210.76V210.54H57.4353C56.8086 210.54 56.2886 210.68 55.8753 210.96C55.4753 211.227 55.2753 211.633 55.2753 212.18C55.2753 212.727 55.482 213.153 55.8953 213.46C56.322 213.767 56.8686 213.92 57.5353 213.92ZM69.3453 215.18C68.6386 215.18 67.9853 215.027 67.3853 214.72C66.7986 214.413 66.332 213.96 65.9853 213.36C65.652 212.747 65.4853 212.007 65.4853 211.14V205.22H67.0653V211.02C67.0653 211.993 67.3053 212.7 67.7853 213.14C68.2786 213.58 68.9386 213.8 69.7653 213.8C70.6986 213.8 71.4653 213.493 72.0653 212.88C72.6653 212.267 72.9653 211.353 72.9653 210.14V205.22H74.5453V215H73.0053V213.34H72.7253C72.512 213.807 72.1453 214.233 71.6253 214.62C71.1053 214.993 70.3453 215.18 69.3453 215.18ZM77.8514 215V205.22H79.3914V206.88H79.6714C79.8847 206.413 80.2447 205.993 80.7514 205.62C81.2714 205.233 82.0314 205.04 83.0314 205.04C83.7647 205.04 84.4181 205.193 84.9914 205.5C85.5781 205.807 86.0447 206.26 86.3914 206.86C86.7381 207.46 86.9114 208.2 86.9114 209.08V215H85.3314V209.2C85.3314 208.227 85.0847 207.52 84.5914 207.08C84.1114 206.64 83.4581 206.42 82.6314 206.42C81.6847 206.42 80.9114 206.727 80.3114 207.34C79.7247 207.953 79.4314 208.867 79.4314 210.08V215H77.8514ZM94.617 215.28C93.6704 215.28 92.817 215.08 92.057 214.68C91.3104 214.267 90.717 213.68 90.277 212.92C89.8504 212.16 89.637 211.26 89.637 210.22V210C89.637 208.947 89.8504 208.047 90.277 207.3C90.717 206.54 91.3104 205.96 92.057 205.56C92.817 205.147 93.6704 204.94 94.617 204.94C95.5504 204.94 96.3437 205.113 96.997 205.46C97.6637 205.807 98.1837 206.267 98.557 206.84C98.9437 207.413 99.1904 208.027 99.297 208.68L97.757 209C97.6904 208.52 97.5304 208.08 97.277 207.68C97.037 207.28 96.697 206.96 96.257 206.72C95.817 206.48 95.277 206.36 94.637 206.36C93.9837 206.36 93.397 206.507 92.877 206.8C92.3704 207.093 91.9637 207.513 91.657 208.06C91.3637 208.607 91.217 209.26 91.217 210.02V210.2C91.217 210.96 91.3637 211.613 91.657 212.16C91.9637 212.707 92.3704 213.127 92.877 213.42C93.397 213.713 93.9837 213.86 94.637 213.86C95.6104 213.86 96.3504 213.607 96.857 213.1C97.377 212.593 97.697 211.967 97.817 211.22L99.377 211.56C99.2304 212.2 98.9637 212.807 98.577 213.38C98.1904 213.953 97.6637 214.413 96.997 214.76C96.3437 215.107 95.5504 215.28 94.617 215.28ZM102.07 215V201H103.65V206.78H103.93C104.063 206.487 104.263 206.213 104.53 205.96C104.81 205.693 105.163 205.473 105.59 205.3C106.03 205.127 106.583 205.04 107.25 205.04C107.983 205.04 108.637 205.2 109.21 205.52C109.797 205.827 110.263 206.28 110.61 206.88C110.957 207.467 111.13 208.2 111.13 209.08V215H109.55V209.2C109.55 208.227 109.303 207.52 108.81 207.08C108.33 206.64 107.677 206.42 106.85 206.42C105.903 206.42 105.13 206.727 104.53 207.34C103.943 207.953 103.65 208.867 103.65 210.08V215H102.07ZM123.316 219C121.529 219 119.949 218.653 118.576 217.96C117.216 217.267 116.149 216.267 115.376 214.96C114.602 213.64 114.216 212.04 114.216 210.16V209.74C114.216 207.873 114.582 206.287 115.316 204.98C116.049 203.66 117.069 202.653 118.376 201.96C119.696 201.267 121.222 200.92 122.956 200.92H123.376C125.029 200.92 126.482 201.26 127.736 201.94C128.989 202.607 129.969 203.56 130.676 204.8C131.382 206.04 131.736 207.527 131.736 209.26V209.94C131.736 211.633 131.422 212.9 130.796 213.74C130.182 214.58 129.309 215 128.176 215H127.516C126.969 215 126.556 214.88 126.276 214.64C125.996 214.387 125.856 214.053 125.856 213.64V213.44H125.576C125.469 213.72 125.296 214 125.056 214.28C124.829 214.547 124.516 214.773 124.116 214.96C123.729 215.147 123.229 215.24 122.616 215.24C121.829 215.24 121.122 215.027 120.496 214.6C119.869 214.173 119.376 213.587 119.016 212.84C118.669 212.093 118.496 211.26 118.496 210.34V209.98C118.496 209.033 118.669 208.193 119.016 207.46C119.362 206.727 119.842 206.147 120.456 205.72C121.069 205.293 121.769 205.08 122.556 205.08C123.156 205.08 123.649 205.167 124.036 205.34C124.422 205.5 124.729 205.707 124.956 205.96C125.182 206.213 125.362 206.467 125.496 206.72H125.776V205.32H127.316V213.08C127.316 213.28 127.349 213.42 127.416 213.5C127.496 213.58 127.629 213.62 127.816 213.62H128.056C128.802 213.62 129.336 213.333 129.656 212.76C129.989 212.173 130.156 211.207 130.156 209.86V209.3C130.156 207.82 129.882 206.567 129.336 205.54C128.789 204.5 128.009 203.707 126.996 203.16C125.982 202.613 124.769 202.34 123.356 202.34H123.016C121.562 202.34 120.296 202.62 119.216 203.18C118.136 203.74 117.296 204.573 116.696 205.68C116.096 206.787 115.796 208.16 115.796 209.8V210.12C115.796 211.747 116.109 213.12 116.736 214.24C117.376 215.347 118.269 216.18 119.416 216.74C120.562 217.3 121.889 217.58 123.396 217.58H127.316V219H123.316ZM122.916 213.82C123.756 213.82 124.442 213.507 124.976 212.88C125.509 212.253 125.776 211.38 125.776 210.26V210.06C125.776 208.94 125.509 208.067 124.976 207.44C124.442 206.8 123.756 206.48 122.916 206.48C122.076 206.48 121.389 206.8 120.856 207.44C120.322 208.08 120.056 208.947 120.056 210.04V210.28C120.056 211.36 120.322 212.22 120.856 212.86C121.389 213.5 122.076 213.82 122.916 213.82ZM134.383 210.16V209.88C134.383 208.853 134.59 207.973 135.003 207.24C135.416 206.507 135.976 205.94 136.683 205.54C137.39 205.14 138.163 204.94 139.003 204.94C140.03 204.94 140.816 205.14 141.363 205.54C141.923 205.927 142.336 206.36 142.603 206.84H142.883V205.22H144.383V217.28C144.383 217.813 144.236 218.233 143.943 218.54C143.65 218.847 143.223 219 142.663 219H136.023V217.6H142.243C142.643 217.6 142.843 217.4 142.843 217V213.28H142.563C142.403 213.573 142.176 213.86 141.883 214.14C141.59 214.42 141.21 214.653 140.743 214.84C140.276 215.013 139.696 215.1 139.003 215.1C138.163 215.1 137.39 214.9 136.683 214.5C135.976 214.1 135.416 213.533 135.003 212.8C134.59 212.053 134.383 211.173 134.383 210.16ZM139.423 213.7C140.436 213.7 141.256 213.38 141.883 212.74C142.523 212.1 142.843 211.22 142.843 210.1V209.94C142.843 208.807 142.523 207.927 141.883 207.3C141.256 206.66 140.436 206.34 139.423 206.34C138.423 206.34 137.596 206.66 136.943 207.3C136.303 207.927 135.983 208.807 135.983 209.94V210.1C135.983 211.22 136.303 212.1 136.943 212.74C137.596 213.38 138.423 213.7 139.423 213.7ZM147.695 215V205.22H149.235V206.44H149.515C149.702 206.093 150.008 205.773 150.435 205.48C150.862 205.187 151.462 205.04 152.235 205.04C152.995 205.04 153.608 205.207 154.075 205.54C154.555 205.873 154.902 206.28 155.115 206.76H155.395C155.622 206.28 155.962 205.873 156.415 205.54C156.882 205.207 157.528 205.04 158.355 205.04C159.008 205.04 159.582 205.173 160.075 205.44C160.568 205.707 160.955 206.093 161.235 206.6C161.528 207.093 161.675 207.687 161.675 208.38V215H160.095V208.52C160.095 207.867 159.902 207.353 159.515 206.98C159.142 206.593 158.615 206.4 157.935 206.4C157.215 206.4 156.622 206.633 156.155 207.1C155.702 207.567 155.475 208.24 155.475 209.12V215H153.895V208.52C153.895 207.867 153.702 207.353 153.315 206.98C152.942 206.593 152.415 206.4 151.735 206.4C151.015 206.4 150.422 206.633 149.955 207.1C149.502 207.567 149.275 208.24 149.275 209.12V215H147.695ZM167.902 215.28C167.222 215.28 166.602 215.16 166.042 214.92C165.482 214.68 165.042 214.333 164.722 213.88C164.402 213.427 164.242 212.873 164.242 212.22C164.242 211.553 164.402 211.007 164.722 210.58C165.042 210.14 165.482 209.813 166.042 209.6C166.602 209.373 167.229 209.26 167.922 209.26H171.222V208.54C171.222 207.847 171.016 207.3 170.602 206.9C170.202 206.5 169.602 206.3 168.802 206.3C168.016 206.3 167.402 206.493 166.962 206.88C166.522 207.253 166.222 207.76 166.062 208.4L164.582 207.92C164.742 207.373 164.996 206.88 165.342 206.44C165.689 205.987 166.149 205.627 166.722 205.36C167.309 205.08 168.009 204.94 168.822 204.94C170.076 204.94 171.049 205.267 171.742 205.92C172.436 206.56 172.782 207.467 172.782 208.64V213.06C172.782 213.46 172.969 213.66 173.342 213.66H174.242V215H172.862C172.422 215 172.069 214.88 171.802 214.64C171.536 214.387 171.402 214.053 171.402 213.64V213.54H171.162C171.016 213.793 170.816 214.06 170.562 214.34C170.322 214.607 169.989 214.827 169.562 215C169.136 215.187 168.582 215.28 167.902 215.28ZM168.082 213.92C169.016 213.92 169.769 213.647 170.342 213.1C170.929 212.54 171.222 211.76 171.222 210.76V210.54H167.982C167.356 210.54 166.836 210.68 166.422 210.96C166.022 211.227 165.822 211.633 165.822 212.18C165.822 212.727 166.029 213.153 166.442 213.46C166.869 213.767 167.416 213.92 168.082 213.92ZM176.406 215V205.22H177.986V215H176.406ZM177.206 203.7C176.859 203.7 176.566 203.587 176.326 203.36C176.099 203.133 175.986 202.847 175.986 202.5C175.986 202.14 176.099 201.847 176.326 201.62C176.566 201.393 176.859 201.28 177.206 201.28C177.553 201.28 177.839 201.393 178.066 201.62C178.293 201.847 178.406 202.14 178.406 202.5C178.406 202.847 178.293 203.133 178.066 203.36C177.839 203.587 177.553 203.7 177.206 203.7ZM181.308 215V201H182.888V215H181.308ZM187.071 215.28C186.684 215.28 186.357 215.153 186.091 214.9C185.837 214.647 185.711 214.32 185.711 213.92C185.711 213.52 185.837 213.193 186.091 212.94C186.357 212.687 186.684 212.56 187.071 212.56C187.471 212.56 187.797 212.687 188.051 212.94C188.304 213.193 188.431 213.52 188.431 213.92C188.431 214.32 188.304 214.647 188.051 214.9C187.797 215.153 187.471 215.28 187.071 215.28ZM195.633 215.28C194.686 215.28 193.833 215.08 193.073 214.68C192.326 214.267 191.733 213.68 191.293 212.92C190.866 212.16 190.653 211.26 190.653 210.22V210C190.653 208.947 190.866 208.047 191.293 207.3C191.733 206.54 192.326 205.96 193.073 205.56C193.833 205.147 194.686 204.94 195.633 204.94C196.566 204.94 197.359 205.113 198.013 205.46C198.679 205.807 199.199 206.267 199.573 206.84C199.959 207.413 200.206 208.027 200.313 208.68L198.773 209C198.706 208.52 198.546 208.08 198.293 207.68C198.053 207.28 197.713 206.96 197.273 206.72C196.833 206.48 196.293 206.36 195.653 206.36C194.999 206.36 194.413 206.507 193.893 206.8C193.386 207.093 192.979 207.513 192.673 208.06C192.379 208.607 192.233 209.26 192.233 210.02V210.2C192.233 210.96 192.379 211.613 192.673 212.16C192.979 212.707 193.386 213.127 193.893 213.42C194.413 213.713 194.999 213.86 195.653 213.86C196.626 213.86 197.366 213.607 197.873 213.1C198.393 212.593 198.713 211.967 198.833 211.22L200.393 211.56C200.246 212.2 199.979 212.807 199.593 213.38C199.206 213.953 198.679 214.413 198.013 214.76C197.359 215.107 196.566 215.28 195.633 215.28ZM207.606 215.28C206.619 215.28 205.746 215.073 204.986 214.66C204.239 214.247 203.652 213.667 203.226 212.92C202.812 212.16 202.606 211.267 202.606 210.24V209.98C202.606 208.967 202.812 208.08 203.226 207.32C203.652 206.56 204.239 205.973 204.986 205.56C205.746 205.147 206.619 204.94 207.606 204.94C208.592 204.94 209.459 205.147 210.206 205.56C210.966 205.973 211.552 206.56 211.966 207.32C212.392 208.08 212.606 208.967 212.606 209.98V210.24C212.606 211.267 212.392 212.16 211.966 212.92C211.552 213.667 210.966 214.247 210.206 214.66C209.459 215.073 208.592 215.28 207.606 215.28ZM207.606 213.86C208.646 213.86 209.472 213.533 210.086 212.88C210.712 212.213 211.026 211.32 211.026 210.2V210.02C211.026 208.9 210.712 208.013 210.086 207.36C209.472 206.693 208.646 206.36 207.606 206.36C206.579 206.36 205.752 206.693 205.126 207.36C204.499 208.013 204.186 208.9 204.186 210.02V210.2C204.186 211.32 204.499 212.213 205.126 212.88C205.752 213.533 206.579 213.86 207.606 213.86ZM215.449 215V205.22H216.989V206.44H217.269C217.456 206.093 217.762 205.773 218.189 205.48C218.616 205.187 219.216 205.04 219.989 205.04C220.749 205.04 221.362 205.207 221.829 205.54C222.309 205.873 222.656 206.28 222.869 206.76H223.149C223.376 206.28 223.716 205.873 224.169 205.54C224.636 205.207 225.282 205.04 226.109 205.04C226.762 205.04 227.336 205.173 227.829 205.44C228.322 205.707 228.709 206.093 228.989 206.6C229.282 207.093 229.429 207.687 229.429 208.38V215H227.849V208.52C227.849 207.867 227.656 207.353 227.269 206.98C226.896 206.593 226.369 206.4 225.689 206.4C224.969 206.4 224.376 206.633 223.909 207.1C223.456 207.567 223.229 208.24 223.229 209.12V215H221.649V208.52C221.649 207.867 221.456 207.353 221.069 206.98C220.696 206.593 220.169 206.4 219.489 206.4C218.769 206.4 218.176 206.633 217.709 207.1C217.256 207.567 217.029 208.24 217.029 209.12V215H215.449Z" fill="#DBDBDB"/>
</svg>
