<svg width="183" height="172" viewBox="0 0 183 172" fill="none" xmlns="http://www.w3.org/2000/svg">
<path d="M36.464 24.336C35.2 24.336 34.08 24.112 33.104 23.664C32.128 23.216 31.36 22.56 30.8 21.696C30.256 20.816 29.984 19.752 29.984 18.504V17.904H32.552V18.504C32.552 19.688 32.904 20.576 33.608 21.168C34.328 21.76 35.28 22.056 36.464 22.056C37.664 22.056 38.568 21.808 39.176 21.312C39.784 20.8 40.088 20.144 40.088 19.344C40.088 18.816 39.944 18.384 39.656 18.048C39.368 17.712 38.96 17.448 38.432 17.256C37.904 17.048 37.272 16.856 36.536 16.68L35.648 16.464C34.576 16.208 33.64 15.896 32.84 15.528C32.056 15.144 31.448 14.64 31.016 14.016C30.584 13.392 30.368 12.592 30.368 11.616C30.368 10.624 30.608 9.776 31.088 9.072C31.584 8.368 32.264 7.824 33.128 7.44C33.992 7.056 35.008 6.864 36.176 6.864C37.344 6.864 38.384 7.064 39.296 7.464C40.224 7.864 40.952 8.456 41.48 9.24C42.008 10.024 42.272 11.008 42.272 12.192V13.056H39.704V12.192C39.704 11.472 39.552 10.888 39.248 10.44C38.96 9.992 38.552 9.664 38.024 9.456C37.496 9.248 36.88 9.144 36.176 9.144C35.152 9.144 34.352 9.36 33.776 9.792C33.216 10.208 32.936 10.792 32.936 11.544C32.936 12.056 33.056 12.48 33.296 12.816C33.552 13.136 33.92 13.4 34.4 13.608C34.88 13.816 35.48 14 36.2 14.16L37.088 14.376C38.176 14.616 39.136 14.928 39.968 15.312C40.8 15.68 41.456 16.184 41.936 16.824C42.416 17.464 42.656 18.288 42.656 19.296C42.656 20.304 42.4 21.184 41.888 21.936C41.392 22.688 40.68 23.28 39.752 23.712C38.824 24.128 37.728 24.336 36.464 24.336ZM45.449 24V7.2H47.921V13.848H48.305C48.465 13.544 48.689 13.248 48.977 12.96C49.281 12.672 49.673 12.44 50.153 12.264C50.649 12.072 51.273 11.976 52.025 11.976C52.921 11.976 53.713 12.176 54.401 12.576C55.105 12.976 55.657 13.544 56.057 14.28C56.457 15 56.657 15.872 56.657 16.896V24H54.185V17.088C54.185 16.064 53.929 15.312 53.417 14.832C52.905 14.336 52.201 14.088 51.305 14.088C50.281 14.088 49.457 14.424 48.833 15.096C48.225 15.768 47.921 16.744 47.921 18.024V24H45.449ZM65.7586 24.336C64.5746 24.336 63.5186 24.096 62.5906 23.616C61.6786 23.12 60.9586 22.416 60.4306 21.504C59.9026 20.592 59.6386 19.512 59.6386 18.264V17.904C59.6386 16.656 59.9026 15.584 60.4306 14.688C60.9586 13.776 61.6786 13.072 62.5906 12.576C63.5186 12.08 64.5746 11.832 65.7586 11.832C66.9426 11.832 67.9986 12.08 68.9266 12.576C69.8546 13.072 70.5826 13.776 71.1106 14.688C71.6386 15.584 71.9026 16.656 71.9026 17.904V18.264C71.9026 19.512 71.6386 20.592 71.1106 21.504C70.5826 22.416 69.8546 23.12 68.9266 23.616C67.9986 24.096 66.9426 24.336 65.7586 24.336ZM65.7586 22.128C66.8466 22.128 67.7266 21.784 68.3986 21.096C69.0866 20.392 69.4306 19.424 69.4306 18.192V17.976C69.4306 16.744 69.0946 15.784 68.4226 15.096C67.7506 14.392 66.8626 14.04 65.7586 14.04C64.6866 14.04 63.8066 14.392 63.1186 15.096C62.4466 15.784 62.1106 16.744 62.1106 17.976V18.192C62.1106 19.424 62.4466 20.392 63.1186 21.096C63.8066 21.784 64.6866 22.128 65.7586 22.128ZM74.9803 24V12.168H77.4043V13.56H77.7883C77.9803 13.064 78.2843 12.704 78.7003 12.48C79.1323 12.24 79.6603 12.12 80.2843 12.12H81.7003V14.352H80.1883C79.3883 14.352 78.7323 14.576 78.2203 15.024C77.7083 15.456 77.4523 16.128 77.4523 17.04V24H74.9803ZM88.7015 24C87.9815 24 87.4055 23.784 86.9735 23.352C86.5575 22.92 86.3495 22.344 86.3495 21.624V14.256H83.0855V12.168H86.3495V8.256H88.8215V12.168H92.3495V14.256H88.8215V21.192C88.8215 21.672 89.0455 21.912 89.4935 21.912H91.9655V24H88.7015ZM107.539 24.336C105.491 24.336 103.867 23.76 102.667 22.608C101.467 21.44 100.867 19.76 100.867 17.568V13.632C100.867 11.44 101.467 9.768 102.667 8.616C103.867 7.448 105.491 6.864 107.539 6.864C109.555 6.864 111.107 7.424 112.195 8.544C113.299 9.664 113.851 11.192 113.851 13.128V13.272H111.283V13.056C111.283 11.92 110.971 10.992 110.347 10.272C109.739 9.552 108.803 9.192 107.539 9.192C106.259 9.192 105.259 9.584 104.539 10.368C103.819 11.136 103.459 12.208 103.459 13.584V17.616C103.459 18.976 103.819 20.048 104.539 20.832C105.259 21.616 106.259 22.008 107.539 22.008C108.803 22.008 109.739 21.648 110.347 20.928C110.971 20.192 111.283 19.264 111.283 18.144V17.736H113.851V18.072C113.851 20.008 113.299 21.536 112.195 22.656C111.107 23.776 109.555 24.336 107.539 24.336ZM121.329 24.216C120.433 24.216 119.633 24.016 118.929 23.616C118.225 23.216 117.673 22.648 117.273 21.912C116.873 21.176 116.673 20.296 116.673 19.272V12.168H119.145V19.104C119.145 20.128 119.401 20.888 119.913 21.384C120.425 21.864 121.137 22.104 122.049 22.104C123.057 22.104 123.865 21.768 124.473 21.096C125.097 20.408 125.409 19.424 125.409 18.144V12.168H127.881V24H125.457V22.224H125.073C124.849 22.704 124.449 23.16 123.873 23.592C123.297 24.008 122.449 24.216 121.329 24.216ZM135.975 24C135.255 24 134.679 23.784 134.247 23.352C133.831 22.92 133.623 22.344 133.623 21.624V14.256H130.359V12.168H133.623V8.256H136.095V12.168H139.623V14.256H136.095V21.192C136.095 21.672 136.319 21.912 136.767 21.912H139.239V24H135.975ZM147.375 24.336C145.871 24.336 144.623 24 143.631 23.328C142.639 22.656 142.031 21.64 141.807 20.28L144.111 19.728C144.239 20.384 144.455 20.904 144.759 21.288C145.063 21.672 145.439 21.944 145.887 22.104C146.351 22.264 146.847 22.344 147.375 22.344C148.159 22.344 148.759 22.192 149.175 21.888C149.607 21.584 149.823 21.192 149.823 20.712C149.823 20.232 149.623 19.88 149.223 19.656C148.823 19.432 148.231 19.248 147.447 19.104L146.631 18.96C145.831 18.816 145.103 18.608 144.447 18.336C143.791 18.064 143.271 17.688 142.887 17.208C142.503 16.728 142.311 16.112 142.311 15.36C142.311 14.24 142.727 13.376 143.559 12.768C144.391 12.144 145.495 11.832 146.871 11.832C148.199 11.832 149.287 12.136 150.135 12.744C150.999 13.336 151.559 14.144 151.815 15.168L149.511 15.816C149.367 15.096 149.063 14.592 148.599 14.304C148.135 14 147.559 13.848 146.871 13.848C146.199 13.848 145.671 13.976 145.287 14.232C144.903 14.472 144.711 14.816 144.711 15.264C144.711 15.744 144.895 16.096 145.263 16.32C145.647 16.544 146.159 16.712 146.799 16.824L147.639 16.968C148.487 17.112 149.263 17.312 149.967 17.568C150.671 17.824 151.223 18.192 151.623 18.672C152.039 19.152 152.247 19.792 152.247 20.592C152.247 21.776 151.807 22.696 150.927 23.352C150.047 24.008 148.863 24.336 147.375 24.336Z" fill="#A0A0A0"/>
<path d="M65.6 84V70H67.28V76.22H73.84V70H75.52V84H73.84V77.74H67.28V84H65.6ZM83.305 84.28C82.3183 84.28 81.445 84.0733 80.685 83.66C79.9383 83.2467 79.3517 82.6667 78.925 81.92C78.5117 81.16 78.305 80.2667 78.305 79.24V78.98C78.305 77.9667 78.5117 77.08 78.925 76.32C79.3517 75.56 79.9383 74.9733 80.685 74.56C81.445 74.1467 82.3183 73.94 83.305 73.94C84.2917 73.94 85.1583 74.1467 85.905 74.56C86.665 74.9733 87.2517 75.56 87.665 76.32C88.0917 77.08 88.305 77.9667 88.305 78.98V79.24C88.305 80.2667 88.0917 81.16 87.665 81.92C87.2517 82.6667 86.665 83.2467 85.905 83.66C85.1583 84.0733 84.2917 84.28 83.305 84.28ZM83.305 82.86C84.345 82.86 85.1717 82.5333 85.785 81.88C86.4117 81.2133 86.725 80.32 86.725 79.2V79.02C86.725 77.9 86.4117 77.0133 85.785 76.36C85.1717 75.6933 84.345 75.36 83.305 75.36C82.2783 75.36 81.4517 75.6933 80.825 76.36C80.1983 77.0133 79.885 77.9 79.885 79.02V79.2C79.885 80.32 80.1983 81.2133 80.825 81.88C81.4517 82.5333 82.2783 82.86 83.305 82.86ZM91.1483 84V74.22H92.6883V75.44H92.9683C93.1549 75.0933 93.4616 74.7733 93.8883 74.48C94.3149 74.1867 94.9149 74.04 95.6883 74.04C96.4483 74.04 97.0616 74.2067 97.5283 74.54C98.0083 74.8733 98.3549 75.28 98.5683 75.76H98.8483C99.0749 75.28 99.4149 74.8733 99.8683 74.54C100.335 74.2067 100.982 74.04 101.808 74.04C102.462 74.04 103.035 74.1733 103.528 74.44C104.022 74.7067 104.408 75.0933 104.688 75.6C104.982 76.0933 105.128 76.6867 105.128 77.38V84H103.548V77.52C103.548 76.8667 103.355 76.3533 102.968 75.98C102.595 75.5933 102.068 75.4 101.388 75.4C100.668 75.4 100.075 75.6333 99.6083 76.1C99.1549 76.5667 98.9283 77.24 98.9283 78.12V84H97.3483V77.52C97.3483 76.8667 97.1549 76.3533 96.7683 75.98C96.3949 75.5933 95.8683 75.4 95.1883 75.4C94.4683 75.4 93.8749 75.6333 93.4083 76.1C92.9549 76.5667 92.7283 77.24 92.7283 78.12V84H91.1483ZM112.835 84.28C111.849 84.28 110.982 84.0733 110.235 83.66C109.489 83.2333 108.909 82.64 108.495 81.88C108.082 81.12 107.875 80.24 107.875 79.24V79C107.875 77.9867 108.082 77.1 108.495 76.34C108.909 75.58 109.482 74.9933 110.215 74.58C110.949 74.1533 111.789 73.94 112.735 73.94C113.655 73.94 114.469 74.14 115.175 74.54C115.882 74.9267 116.435 75.4867 116.835 76.22C117.235 76.9533 117.435 77.8133 117.435 78.8V79.52H109.455C109.495 80.5733 109.835 81.4 110.475 82C111.115 82.5867 111.915 82.88 112.875 82.88C113.715 82.88 114.362 82.6867 114.815 82.3C115.269 81.9133 115.615 81.4533 115.855 80.92L117.215 81.58C117.015 81.9933 116.735 82.4067 116.375 82.82C116.029 83.2333 115.569 83.58 114.995 83.86C114.435 84.14 113.715 84.28 112.835 84.28ZM109.475 78.22H115.835C115.782 77.3133 115.469 76.6067 114.895 76.1C114.335 75.5933 113.615 75.34 112.735 75.34C111.842 75.34 111.109 75.5933 110.535 76.1C109.962 76.6067 109.609 77.3133 109.475 78.22Z" fill="#DBDBDB"/>
<path d="M11.56 111.72V124.4H13.38V129.76H11.66V126H1.84V129.76H0.12V124.4H1.22C1.7 123.573 2.15333 122.647 2.58 121.62C3.02 120.593 3.40667 119.52 3.74 118.4C4.07333 117.267 4.34667 116.133 4.56 115C4.77333 113.867 4.90667 112.773 4.96 111.72H11.56ZM6.54 113.34C6.48667 114.113 6.35333 114.987 6.14 115.96C5.94 116.933 5.68 117.933 5.36 118.96C5.05333 119.973 4.70667 120.953 4.32 121.9C3.94667 122.847 3.54667 123.68 3.12 124.4H9.78V113.34H6.54ZM24.8481 120.62C24.8481 121.513 24.7281 122.307 24.4881 123C24.2615 123.68 23.9281 124.26 23.4881 124.74C23.0615 125.22 22.5348 125.587 21.9081 125.84C21.2948 126.08 20.6081 126.2 19.8481 126.2C19.1415 126.2 18.4881 126.08 17.8881 125.84C17.2881 125.587 16.7681 125.22 16.3281 124.74C15.8881 124.26 15.5415 123.68 15.2881 123C15.0481 122.307 14.9281 121.513 14.9281 120.62C14.9281 119.433 15.1281 118.433 15.5281 117.62C15.9281 116.793 16.5015 116.167 17.2481 115.74C17.9948 115.3 18.8815 115.08 19.9081 115.08C20.8815 115.08 21.7348 115.3 22.4681 115.74C23.2148 116.167 23.7948 116.793 24.2081 117.62C24.6348 118.433 24.8481 119.433 24.8481 120.62ZM16.7481 120.62C16.7481 121.46 16.8548 122.193 17.0681 122.82C17.2948 123.433 17.6415 123.907 18.1081 124.24C18.5748 124.573 19.1681 124.74 19.8881 124.74C20.6081 124.74 21.2015 124.573 21.6681 124.24C22.1348 123.907 22.4748 123.433 22.6881 122.82C22.9148 122.193 23.0281 121.46 23.0281 120.62C23.0281 119.767 22.9148 119.04 22.6881 118.44C22.4615 117.84 22.1148 117.38 21.6481 117.06C21.1948 116.727 20.6015 116.56 19.8681 116.56C18.7748 116.56 17.9815 116.92 17.4881 117.64C16.9948 118.36 16.7481 119.353 16.7481 120.62ZM36.6975 115.28V126H34.9375V116.78H29.3975V126H27.6375V115.28H36.6975ZM49.438 120.62C49.438 121.513 49.318 122.307 49.078 123C48.8513 123.68 48.518 124.26 48.078 124.74C47.6513 125.22 47.1246 125.587 46.498 125.84C45.8846 126.08 45.198 126.2 44.438 126.2C43.7313 126.2 43.078 126.08 42.478 125.84C41.878 125.587 41.358 125.22 40.918 124.74C40.478 124.26 40.1313 123.68 39.878 123C39.638 122.307 39.518 121.513 39.518 120.62C39.518 119.433 39.718 118.433 40.118 117.62C40.518 116.793 41.0913 116.167 41.838 115.74C42.5846 115.3 43.4713 115.08 44.498 115.08C45.4713 115.08 46.3246 115.3 47.058 115.74C47.8046 116.167 48.3846 116.793 48.798 117.62C49.2246 118.433 49.438 119.433 49.438 120.62ZM41.338 120.62C41.338 121.46 41.4446 122.193 41.658 122.82C41.8846 123.433 42.2313 123.907 42.698 124.24C43.1646 124.573 43.758 124.74 44.478 124.74C45.198 124.74 45.7913 124.573 46.258 124.24C46.7246 123.907 47.0646 123.433 47.278 122.82C47.5046 122.193 47.618 121.46 47.618 120.62C47.618 119.767 47.5046 119.04 47.278 118.44C47.0513 117.84 46.7046 117.38 46.238 117.06C45.7846 116.727 45.1913 116.56 44.458 116.56C43.3646 116.56 42.5713 116.92 42.078 117.64C41.5846 118.36 41.338 119.353 41.338 120.62ZM63.7273 115.28V126H62.1473V119.16C62.1473 118.88 62.154 118.587 62.1673 118.28C62.194 117.973 62.2207 117.673 62.2473 117.38H62.1873L58.6873 126H57.2073L53.8073 117.38H53.7473C53.774 117.673 53.7873 117.973 53.7873 118.28C53.8007 118.587 53.8073 118.9 53.8073 119.22V126H52.2273V115.28H54.5673L57.9473 123.9L61.3873 115.28H63.7273ZM76.4692 120.62C76.4692 121.513 76.3492 122.307 76.1092 123C75.8826 123.68 75.5492 124.26 75.1092 124.74C74.6826 125.22 74.1559 125.587 73.5292 125.84C72.9159 126.08 72.2292 126.2 71.4692 126.2C70.7626 126.2 70.1092 126.08 69.5092 125.84C68.9092 125.587 68.3892 125.22 67.9492 124.74C67.5092 124.26 67.1626 123.68 66.9092 123C66.6692 122.307 66.5492 121.513 66.5492 120.62C66.5492 119.433 66.7492 118.433 67.1492 117.62C67.5492 116.793 68.1226 116.167 68.8692 115.74C69.6159 115.3 70.5026 115.08 71.5292 115.08C72.5026 115.08 73.3559 115.3 74.0892 115.74C74.8359 116.167 75.4159 116.793 75.8292 117.62C76.2559 118.433 76.4692 119.433 76.4692 120.62ZM68.3692 120.62C68.3692 121.46 68.4759 122.193 68.6892 122.82C68.9159 123.433 69.2626 123.907 69.7292 124.24C70.1959 124.573 70.7892 124.74 71.5092 124.74C72.2292 124.74 72.8226 124.573 73.2892 124.24C73.7559 123.907 74.0959 123.433 74.3092 122.82C74.5359 122.193 74.6492 121.46 74.6492 120.62C74.6492 119.767 74.5359 119.04 74.3092 118.44C74.0826 117.84 73.7359 117.38 73.2692 117.06C72.8159 116.727 72.2226 116.56 71.4892 116.56C70.3959 116.56 69.6026 116.92 69.1092 117.64C68.6159 118.36 68.3692 119.353 68.3692 120.62ZM85.7986 115.28V116.76H81.0186V126H79.2586V115.28H85.7986ZM95.3109 116.76H91.8109V126H90.0709V116.76H86.6109V115.28H95.3109V116.76ZM99.0827 121.82C99.0827 121.94 99.076 122.113 99.0627 122.34C99.0627 122.553 99.056 122.787 99.0427 123.04C99.0293 123.28 99.016 123.513 99.0027 123.74C98.9893 123.953 98.976 124.127 98.9627 124.26L104.703 115.28H106.863V126H105.223V119.68C105.223 119.467 105.223 119.187 105.223 118.84C105.236 118.493 105.249 118.153 105.263 117.82C105.276 117.473 105.289 117.213 105.303 117.04L99.6027 126H97.4227V115.28H99.0827V121.82ZM118.192 115.08C119.005 115.08 119.712 115.193 120.312 115.42C120.912 115.633 121.379 115.953 121.712 116.38C122.045 116.793 122.212 117.3 122.212 117.9C122.212 118.553 122.032 119.073 121.672 119.46C121.312 119.833 120.819 120.107 120.192 120.28V120.36C120.619 120.48 121.012 120.647 121.372 120.86C121.732 121.073 122.019 121.353 122.232 121.7C122.459 122.047 122.572 122.493 122.572 123.04C122.572 123.627 122.405 124.16 122.072 124.64C121.752 125.12 121.252 125.5 120.572 125.78C119.905 126.06 119.045 126.2 117.992 126.2C117.485 126.2 116.999 126.173 116.532 126.12C116.079 126.067 115.665 125.987 115.292 125.88C114.932 125.773 114.612 125.647 114.332 125.5V123.92C114.785 124.133 115.319 124.327 115.932 124.5C116.559 124.673 117.239 124.76 117.972 124.76C118.505 124.76 118.985 124.7 119.412 124.58C119.852 124.46 120.199 124.273 120.452 124.02C120.705 123.753 120.832 123.393 120.832 122.94C120.832 122.527 120.719 122.193 120.492 121.94C120.265 121.673 119.925 121.473 119.472 121.34C119.032 121.207 118.465 121.14 117.772 121.14H116.332V119.7H117.492C118.412 119.7 119.145 119.58 119.692 119.34C120.252 119.087 120.532 118.66 120.532 118.06C120.532 117.553 120.319 117.173 119.892 116.92C119.479 116.667 118.879 116.54 118.092 116.54C117.505 116.54 116.985 116.6 116.532 116.72C116.092 116.827 115.605 116.993 115.072 117.22L114.452 115.82C115.025 115.567 115.625 115.38 116.252 115.26C116.879 115.14 117.525 115.08 118.192 115.08ZM126.937 115.28V119.74H132.757V115.28H134.517V126H132.757V121.22H126.937V126H125.177V115.28H126.937ZM141.971 115.1C143.278 115.1 144.244 115.387 144.871 115.96C145.498 116.533 145.811 117.447 145.811 118.7V126H144.531L144.191 124.48H144.111C143.804 124.867 143.484 125.193 143.151 125.46C142.831 125.713 142.458 125.9 142.031 126.02C141.618 126.14 141.111 126.2 140.511 126.2C139.871 126.2 139.291 126.087 138.771 125.86C138.264 125.633 137.864 125.287 137.571 124.82C137.278 124.34 137.131 123.74 137.131 123.02C137.131 121.953 137.551 121.133 138.391 120.56C139.231 119.973 140.524 119.653 142.271 119.6L144.091 119.54V118.9C144.091 118.007 143.898 117.387 143.511 117.04C143.124 116.693 142.578 116.52 141.871 116.52C141.311 116.52 140.778 116.607 140.271 116.78C139.764 116.94 139.291 117.127 138.851 117.34L138.311 116.02C138.778 115.767 139.331 115.553 139.971 115.38C140.611 115.193 141.278 115.1 141.971 115.1ZM142.491 120.82C141.158 120.873 140.231 121.087 139.711 121.46C139.204 121.833 138.951 122.36 138.951 123.04C138.951 123.64 139.131 124.08 139.491 124.36C139.864 124.64 140.338 124.78 140.911 124.78C141.818 124.78 142.571 124.533 143.171 124.04C143.771 123.533 144.071 122.76 144.071 121.72V120.76L142.491 120.82ZM157.802 110.84C157.749 111.507 157.582 112.067 157.302 112.52C157.035 112.973 156.635 113.313 156.102 113.54C155.569 113.767 154.875 113.88 154.022 113.88C153.155 113.88 152.455 113.767 151.922 113.54C151.402 113.313 151.022 112.98 150.782 112.54C150.542 112.087 150.395 111.52 150.342 110.84H151.982C152.049 111.56 152.235 112.047 152.542 112.3C152.862 112.54 153.369 112.66 154.062 112.66C154.675 112.66 155.155 112.533 155.502 112.28C155.862 112.013 156.075 111.533 156.142 110.84H157.802ZM150.782 121.82C150.782 121.94 150.775 122.113 150.762 122.34C150.762 122.553 150.755 122.787 150.742 123.04C150.729 123.28 150.715 123.513 150.702 123.74C150.689 123.953 150.675 124.127 150.662 124.26L156.402 115.28H158.562V126H156.922V119.68C156.922 119.467 156.922 119.187 156.922 118.84C156.935 118.493 156.949 118.153 156.962 117.82C156.975 117.473 156.989 117.213 157.002 117.04L151.302 126H149.122V115.28H150.782V121.82ZM169.373 116.76H165.873V126H164.133V116.76H160.673V115.28H169.373V116.76ZM173.145 121.82C173.145 121.94 173.138 122.113 173.125 122.34C173.125 122.553 173.118 122.787 173.105 123.04C173.092 123.28 173.078 123.513 173.065 123.74C173.052 123.953 173.038 124.127 173.025 124.26L178.765 115.28H180.925V126H179.285V119.68C179.285 119.467 179.285 119.187 179.285 118.84C179.298 118.493 179.312 118.153 179.325 117.82C179.338 117.473 179.352 117.213 179.365 117.04L173.665 126H171.485V115.28H173.145V121.82Z" fill="#D9D9D9"/>
<path d="M26.38 155.06C26.38 156.033 26.0733 156.807 25.46 157.38C24.8467 157.94 24.0267 158.3 23 158.46V158.54C24.2 158.7 25.1133 159.073 25.74 159.66C26.3667 160.247 26.68 161.013 26.68 161.96C26.68 162.8 26.4667 163.54 26.04 164.18C25.6133 164.807 24.9733 165.3 24.12 165.66C23.2667 166.02 22.2 166.2 20.92 166.2C20.1467 166.2 19.4067 166.14 18.7 166.02C18.0067 165.913 17.36 165.713 16.76 165.42V163.78C17.1733 163.98 17.6133 164.153 18.08 164.3C18.56 164.433 19.04 164.54 19.52 164.62C20 164.687 20.46 164.72 20.9 164.72C22.18 164.72 23.1467 164.48 23.8 164C24.4667 163.52 24.8 162.84 24.8 161.96C24.8 161.053 24.4133 160.393 23.64 159.98C22.8667 159.567 21.7867 159.36 20.4 159.36H18.36V157.86H20.3C21.2467 157.86 22.0267 157.753 22.64 157.54C23.2667 157.327 23.7333 157.027 24.04 156.64C24.36 156.24 24.52 155.773 24.52 155.24C24.52 154.52 24.2533 153.967 23.72 153.58C23.1867 153.193 22.4933 153 21.64 153C20.7467 153 20 153.113 19.4 153.34C18.8133 153.567 18.24 153.86 17.68 154.22L16.82 153C17.1933 152.72 17.62 152.473 18.1 152.26C18.5933 152.033 19.14 151.853 19.74 151.72C20.34 151.587 20.98 151.52 21.66 151.52C22.6867 151.52 23.5467 151.673 24.24 151.98C24.9467 152.287 25.48 152.707 25.84 153.24C26.2 153.76 26.38 154.367 26.38 155.06ZM31.2178 155.28V159.74H37.0378V155.28H38.7978V166H37.0378V161.22H31.2178V166H29.4578V155.28H31.2178ZM46.2522 155.1C47.5589 155.1 48.5255 155.387 49.1522 155.96C49.7789 156.533 50.0922 157.447 50.0922 158.7V166H48.8122L48.4722 164.48H48.3922C48.0855 164.867 47.7655 165.193 47.4322 165.46C47.1122 165.713 46.7389 165.9 46.3122 166.02C45.8989 166.14 45.3922 166.2 44.7922 166.2C44.1522 166.2 43.5722 166.087 43.0522 165.86C42.5455 165.633 42.1455 165.287 41.8522 164.82C41.5589 164.34 41.4122 163.74 41.4122 163.02C41.4122 161.953 41.8322 161.133 42.6722 160.56C43.5122 159.973 44.8055 159.653 46.5522 159.6L48.3722 159.54V158.9C48.3722 158.007 48.1789 157.387 47.7922 157.04C47.4055 156.693 46.8589 156.52 46.1522 156.52C45.5922 156.52 45.0589 156.607 44.5522 156.78C44.0455 156.94 43.5722 157.127 43.1322 157.34L42.5922 156.02C43.0589 155.767 43.6122 155.553 44.2522 155.38C44.8922 155.193 45.5589 155.1 46.2522 155.1ZM46.7722 160.82C45.4389 160.873 44.5122 161.087 43.9922 161.46C43.4855 161.833 43.2322 162.36 43.2322 163.04C43.2322 163.64 43.4122 164.08 43.7722 164.36C44.1455 164.64 44.6189 164.78 45.1922 164.78C46.0989 164.78 46.8522 164.533 47.4522 164.04C48.0522 163.533 48.3522 162.76 48.3522 161.72V160.76L46.7722 160.82ZM62.0831 150.84C62.0298 151.507 61.8631 152.067 61.5831 152.52C61.3165 152.973 60.9165 153.313 60.3831 153.54C59.8498 153.767 59.1565 153.88 58.3031 153.88C57.4365 153.88 56.7365 153.767 56.2031 153.54C55.6831 153.313 55.3031 152.98 55.0631 152.54C54.8231 152.087 54.6765 151.52 54.6231 150.84H56.2631C56.3298 151.56 56.5165 152.047 56.8231 152.3C57.1431 152.54 57.6498 152.66 58.3431 152.66C58.9565 152.66 59.4365 152.533 59.7831 152.28C60.1431 152.013 60.3565 151.533 60.4231 150.84H62.0831ZM55.0631 161.82C55.0631 161.94 55.0565 162.113 55.0431 162.34C55.0431 162.553 55.0365 162.787 55.0231 163.04C55.0098 163.28 54.9965 163.513 54.9831 163.74C54.9698 163.953 54.9565 164.127 54.9431 164.26L60.6831 155.28H62.8431V166H61.2031V159.68C61.2031 159.467 61.2031 159.187 61.2031 158.84C61.2165 158.493 61.2298 158.153 61.2431 157.82C61.2565 157.473 61.2698 157.213 61.2831 157.04L55.5831 166H53.4031V155.28H55.0631V161.82ZM73.6547 156.76H70.1547V166H68.4147V156.76H64.9547V155.28H73.6547V156.76ZM77.4264 161.82C77.4264 161.94 77.4197 162.113 77.4064 162.34C77.4064 162.553 77.3997 162.787 77.3864 163.04C77.3731 163.28 77.3597 163.513 77.3464 163.74C77.3331 163.953 77.3197 164.127 77.3064 164.26L83.0464 155.28H85.2064V166H83.5664V159.68C83.5664 159.467 83.5664 159.187 83.5664 158.84C83.5797 158.493 83.5931 158.153 83.6064 157.82C83.6197 157.473 83.6331 157.213 83.6464 157.04L77.9464 166H75.7664V155.28H77.4264V161.82ZM101.876 166H100.096V156.74H96.9356C96.8023 158.433 96.6356 159.88 96.4356 161.08C96.2356 162.267 95.9823 163.233 95.6756 163.98C95.369 164.727 95.0023 165.273 94.5756 165.62C94.149 165.967 93.649 166.14 93.0756 166.14C92.9023 166.14 92.729 166.127 92.5556 166.1C92.3956 166.087 92.2623 166.053 92.1556 166V164.68C92.2356 164.707 92.3223 164.727 92.4156 164.74C92.509 164.753 92.6023 164.76 92.6956 164.76C92.989 164.76 93.2556 164.64 93.4956 164.4C93.7356 164.16 93.949 163.793 94.1356 163.3C94.3356 162.807 94.5156 162.187 94.6756 161.44C94.8356 160.68 94.9756 159.787 95.0956 158.76C95.2156 157.733 95.3223 156.573 95.4156 155.28H101.876V166ZM119.198 160.62C119.198 161.807 119.005 162.82 118.618 163.66C118.231 164.487 117.685 165.12 116.978 165.56C116.271 165.987 115.431 166.2 114.458 166.2C113.551 166.2 112.758 166.013 112.078 165.64C111.398 165.253 110.858 164.693 110.458 163.96C110.058 163.213 109.825 162.3 109.758 161.22H107.038V166H105.278V155.28H107.038V159.74H109.778C109.871 158.727 110.118 157.88 110.518 157.2C110.931 156.507 111.471 155.98 112.138 155.62C112.818 155.26 113.605 155.08 114.498 155.08C115.418 155.08 116.231 155.3 116.938 155.74C117.645 156.167 118.198 156.793 118.598 157.62C118.998 158.433 119.198 159.433 119.198 160.62ZM111.558 160.62C111.558 161.513 111.658 162.267 111.858 162.88C112.071 163.493 112.391 163.96 112.818 164.28C113.245 164.587 113.798 164.74 114.478 164.74C115.158 164.74 115.711 164.587 116.138 164.28C116.565 163.96 116.878 163.493 117.078 162.88C117.278 162.267 117.378 161.513 117.378 160.62C117.378 159.727 117.278 158.98 117.078 158.38C116.878 157.78 116.565 157.327 116.138 157.02C115.711 156.713 115.158 156.56 114.478 156.56C113.798 156.56 113.245 156.713 112.818 157.02C112.391 157.327 112.071 157.78 111.858 158.38C111.658 158.98 111.558 159.727 111.558 160.62ZM129.957 155.28V164.52H131.517V169.72H129.817V166H122.357V169.72H120.677V164.52H121.537C122.15 163.667 122.657 162.74 123.057 161.74C123.47 160.727 123.777 159.673 123.977 158.58C124.19 157.473 124.304 156.373 124.317 155.28H129.957ZM125.877 156.66C125.824 157.567 125.684 158.507 125.457 159.48C125.23 160.44 124.937 161.36 124.577 162.24C124.23 163.12 123.824 163.88 123.357 164.52H128.257V156.66H125.877ZM135.278 161.82C135.278 161.94 135.271 162.113 135.258 162.34C135.258 162.553 135.251 162.787 135.238 163.04C135.225 163.28 135.211 163.513 135.198 163.74C135.185 163.953 135.171 164.127 135.158 164.26L140.898 155.28H143.058V166H141.418V159.68C141.418 159.467 141.418 159.187 141.418 158.84C141.431 158.493 141.445 158.153 141.458 157.82C141.471 157.473 141.485 157.213 141.498 157.04L135.798 166H133.618V155.28H135.278V161.82ZM148.23 155.28V159.74H154.05V155.28H155.81V166H154.05V161.22H148.23V166H146.47V155.28H148.23ZM157.524 155.28H159.404L161.724 161.38C161.857 161.74 161.977 162.087 162.084 162.42C162.204 162.753 162.311 163.08 162.404 163.4C162.497 163.707 162.571 164.007 162.624 164.3H162.704C162.784 163.967 162.911 163.533 163.084 163C163.257 162.453 163.437 161.907 163.624 161.36L165.804 155.28H167.704L163.084 167.48C162.831 168.147 162.531 168.727 162.184 169.22C161.851 169.727 161.437 170.113 160.944 170.38C160.464 170.66 159.877 170.8 159.184 170.8C158.864 170.8 158.584 170.78 158.344 170.74C158.104 170.713 157.897 170.68 157.724 170.64V169.24C157.871 169.267 158.044 169.293 158.244 169.32C158.457 169.347 158.677 169.36 158.904 169.36C159.317 169.36 159.671 169.28 159.964 169.12C160.271 168.973 160.531 168.753 160.744 168.46C160.957 168.18 161.137 167.847 161.284 167.46L161.844 166.04L157.524 155.28Z" fill="#D9D9D9"/>
</svg>
