<svg width="18" height="18" viewBox="0 0 18 18" fill="none" xmlns="http://www.w3.org/2000/svg">
<path d="M8.72327 13.3425L4.38117 9.17637L5.24983 8.32855L8.10981 11.0734V0.887695H9.33674V11.0734L12.1955 8.32972L13.0654 9.17637L8.72327 13.3425ZM2.11748 17.3732C1.55228 17.3732 1.08073 17.1919 0.702834 16.8292C0.324939 16.4665 0.135584 16.0135 0.134766 15.4703V12.6171H1.3617V15.4703C1.3617 15.6516 1.44022 15.8181 1.59727 15.9696C1.75431 16.1211 1.92731 16.1965 2.11626 16.1957H15.3303C15.5184 16.1957 15.6914 16.1203 15.8493 15.9696C16.0071 15.8189 16.0857 15.6524 16.0848 15.4703V12.6171H17.3118V15.4703C17.3118 16.0128 17.1228 16.4653 16.7449 16.828C16.367 17.1907 15.8951 17.3724 15.3291 17.3732H2.11748Z" fill="black"/>
</svg>
